<svg xmlns="http://www.w3.org/2000/svg" width="33" height="15" viewBox="0 0 33 15"><path fill="#A09386" fill-rule="evenodd" d="M25.268 8c-.045 0-.068-.023-.068-.068V6.373c0-.036.023-.055.068-.055h2.154c-.347-.155-.622-.417-.827-.786a2.49 2.49 0 0 1-.308-1.23c0-1.048.345-1.872 1.036-2.471.69-.6 1.634-.9 2.833-.9.41 0 .84.046 1.289.137.449.092.803.199 1.063.322l-.588 1.64a5.385 5.385 0 0 0-.964-.324 4.037 4.037 0 0 0-.861-.093c-.575 0-1.019.153-1.333.458-.315.306-.472.745-.472 1.32 0 .565.162 1.027.485 1.387.324.36.759.54 1.306.54h2.563V8h-7.376zm-.136-1.682c.045 0 .068.019.068.055v1.559c0 .045-.023.068-.068.068h-1.819v.226c0 .961-.265 1.725-.796 2.29-.53.565-1.24.847-2.13.847-.478 0-.916-.057-1.315-.17-.399-.115-.82-.32-1.261-.616l.84-1.36c.246.155.464.262.653.321.19.06.416.089.68.089.374 0 .675-.142.903-.427.228-.285.342-.644.342-1.077V1.068h2.084v5.25h1.819zM13.347 8c-.046 0-.069-.023-.069-.068V6.373c0-.036.023-.055.069-.055h1.75v-5.25h2.085V8h-3.835zm2.673 3.5c-.292 0-.522-.09-.69-.27-.17-.18-.254-.425-.254-.735 0-.314.083-.562.25-.742.166-.18.397-.27.694-.27.282 0 .507.09.673.267.166.178.25.426.25.745 0 .31-.086.555-.257.735a.877.877 0 0 1-.666.27zM13.14 8c-.502 0-.93-.07-1.283-.212-.353-.141-.718-.412-1.097-.813-.1-.105-.337-.42-.71-.944-.443-.615-.79-1.026-1.04-1.234-.25-.207-.487-.31-.71-.31-.151 0-.34.077-.568.232a2.41 2.41 0 0 0-.574.54c-.155.205-.233.38-.233.526 0 .192.081.358.243.5.162.14.418.27.769.389.597.2 1.038.392 1.323.574.285.182.499.403.642.663.144.26.216.565.216.916 0 .825-.334 1.454-1.002 1.887-.667.433-1.673.65-3.018.65H2.796A2.674 2.674 0 0 1 .34 9.817 3.69 3.69 0 0 1-.02 8.171c0-.912.15-1.814.451-2.707h1.86a6.09 6.09 0 0 0-.236 1.1c-.04.347-.058.78-.058 1.3 0 .318.078.62.235.905.158.285.366.508.626.67.26.162.529.243.807.243h2.42c.756 0 1.272-.057 1.548-.171.276-.114.413-.306.413-.574 0-.16-.076-.296-.229-.407-.152-.112-.397-.213-.734-.304-.784-.2-1.329-.468-1.634-.8-.306-.333-.458-.782-.458-1.347 0-.488.176-1 .53-1.535.353-.535.81-.986 1.37-1.353s1.098-.55 1.613-.55c.301 0 .58.058.834.174.256.116.503.292.742.526.24.235.63.74 1.172 1.514.429.616.774 1.013 1.036 1.193.262.18.546.27.851.27h.069c.05 0 .075.019.075.055v1.559c0 .045-.025.068-.075.068h-.069zm-8.98 6.822c-.288 0-.516-.09-.684-.27-.169-.18-.253-.425-.253-.735 0-.314.083-.561.25-.741.166-.18.395-.27.686-.27.287 0 .513.089.677.266.164.178.246.426.246.745 0 .32-.084.567-.253.742-.169.176-.392.263-.67.263zm2.378 0c-.287 0-.515-.09-.684-.27-.168-.18-.252-.425-.252-.735 0-.314.083-.561.25-.741.165-.18.394-.27.686-.27.292 0 .52.09.684.27.164.18.246.427.246.741 0 .31-.086.555-.257.735-.17.18-.395.27-.673.27z"/></svg>