<svg xmlns="http://www.w3.org/2000/svg" width="287" height="90" viewBox="0 0 287 90"><g fill="#26336D"><path d="M265.865 17.021a27.221 27.221 0 0 1-.596 1.267c-.109.21-.305.526-.42.704l-.355.545c-.018.036-.018.093.014.083a2.8 2.8 0 0 0 .32-.203c.137-.113.66-.491.824-.632.168-.158.635-.662.736-.764.084-.077.232-.278.34-.471.107-.175.502-1.04.559-1.207.031-.079.521-1.226.553-1.286.033-.07.328-.81.391-.878.074-.071.236-.065.379-.053.127.017.416-.023.488-.082.084-.068.105-.109.105-.109l-.055-.164s-.203-.539-.203-.898c0-.19-.01-.503-.01-.503s.049-.271-.475.031c-.529.301-.713.321-.893.595-.119.192-.301.66-.385.879-.078.209-.58 1.328-.633 1.464-.049.145-.629 1.549-.684 1.682M230.889 12.471c5.223-1.783 6.504-4.179 6.504-4.179s.156.212.404.353c.258.133.611.19 1.082.008.957-.36 1.094-2.3 1.076-2.832-.01-.876-.748-1.417-.748-1.417s-.174.253-.23.433c-.146.447-.225 1.021-.225 1.021s.426.333.525.794c.029.128.078.301-.428.505-.381.15-.846.082-1.01-.079-.078-.054-.021-.325-.021-.325l.078-.475-.156.042s-.168.514-1.084 1.343c-3.33 3.003-8.529 4.219-10.398 3.799-1.729-.399-2.066-1.496-2.096-2.475-.029-.171-.162-.215-.162-.215s-.373 2.036.59 3.278c.848 1.112 2.787 1.625 6.299.421M241.896 5.274c.023-.057.041-.218.037-.348-.008-.096 0-.124.049-.198.074-.135.582-.339.869-.453a25.2 25.2 0 0 0 1.434-.607c.545-.263 1.379-.742 1.531-.868.105-.085.096-.4.096-.4s-.029-.122-.076-.134c-.029-.017-.078.02-.133.055a6.282 6.282 0 0 1-.525.353c-.377.224-1.799.83-1.961.904-.156.076-1.309.559-1.412.698-.098.136-.084.4-.092.567-.004.165-.004.67.016.67.058 0 .146-.178.167-.239M237.742 10.255c-.25.236-.561.847-.561.847s-.945-.478-1.152-.508c-.174-.034-.814 1.106-.785 1.235.02.093.174.161.174.161l1.15.615s.162-.161.303-.385c.141-.222.273-.471.34-.553.062-.068 1.064.587 1.064.587s.283-.373.432-.626c.211-.348.311-.567.311-.567s.033-.131-.027-.187c-.402-.355-1.135-.618-1.135-.618s-.081-.034-.114-.001"/><path d="M229.115 8.173c.078.031.369.099.48.119.111.017.322.054.516.082.199.034.369.08.459.034.037-.02.141-.263.176-.348.037-.086.133-.42.189-.592.059-.179.102-.136.178-.136.08 0 .248.06.354.097.098.026.521.133.641.158.113.029.375.065.471.102.096.024.186 0 .186 0s.135-.204.18-.289c.043-.085.125-.236.164-.357.041-.119.197-.527.189-.652-.018-.138-.121-.179-.246-.206-.123-.024-.512-.077-.645-.106-.133-.031-.785-.221-.842-.232-.055-.001-.098-.059-.182.02-.09.076-.152.257-.209.386-.047.131-.219.607-.25.639-.029.032-.047.032-.32 0-.938-.111-1.082-.269-1.197-.269-.109 0-.229.391-.279.53-.064.132-.268.776-.268.776s0 .146.051.178c.058.024.122.038.204.066M225.574 7.318a.638.638 0 0 0 .064-.201c.037-.175.23-.193.301-.24s.34-.159.402-.193c.061-.02.307-.072.363-.046.049.026.002.068-.014.148-.01.079-.156.218-.197.294-.045.082-.396.467-.49.589-.086.133-.43.496-.484.555-.053.056-.023.111-.023.111s.074.026.16-.019c.096-.054.27-.05.525-.203.525-.312.621-.555.711-.807.096-.244.24-1.116.227-1.467-.01-.221-.156-.298-.156-.298s-.102-.067-.178-.036c-.062.021-.168.037-.25.074-.145.051-.584.241-.705.3-.117.062-.123.007-.26.199-.141.193-.141.49-.148.584-.008.091-.041.651-.041.651s.049.083.07.083c.016.003.108-.039.123-.078M239.803 11.119c.494.59.883.794 1.551.822.611.019 1.109-.192 1.576-.459.408-.232 1.527-1.102 1.781-1.363.264-.26.74-.587.785-.612.041-.029.064-.019.064-.019s.775.822 2.309 1.369c.66.233 3.07.918 3.885 1.11 3.732.881 6.375 1.981 6.527 2.057.152.081 1.336.592 1.951.943.047.029.115.054.092.173-.006.037-.152.248-.178.305-.01.042-.066.236-.059.498.006.328.145.643.307.895.244.368.789.712 1.041.833.258.121.689.15.949.113.398-.058.545-.306.654-.422.113-.113.494-.491.791-.738.367-.295.561-.513.689-.768.09-.17.584-1.515.637-1.695.051-.175.465-1.374.484-1.45.047-.159.09-.338.18-.408.078-.059.295-.134.434-.181.289-.094.537-.15.635-.179.102-.02.139-.098.131-.142a6.877 6.877 0 0 1-.113-.272c-.035-.122-.193-.635-.238-.786-.049-.18-.049-.36-.049-.36s-.023-.04-.084-.069c-.061-.022-.104.019-.17.043-.055.026-.521.308-.65.393-.135.079-.324.156-.611.572-.234.325-.914 2.44-.998 2.68-.086.244-.637 1.926-.68 2.079-.055.144-.195.546-.229.567-.031.011-.086.053-.258.028-.764-.116-1.158-.57-1.371-.819-.357-.408-.408-.901-.295-1.131.109-.223.355-.625.475-.79.223-.283.357-.609.287-1.205-.094-.836-1.17-1.836-1.48-2.028-1.57-.932-4.576-1.939-4.902-2.043l-4.771-1.416c-.248-.076-.959-.405-.945-.555.01-.144.625-.338.867-.411.445-.139 1.596-.405 2.553-.529.816-.108 1.875-.045 2.023-.051.148-.009.443-.355.574-.47.137-.121.438-.413.504-.498.062-.094-.086-.133-.086-.133s-.889-.039-1.393-.028c-2.92.099-4.773 1.128-4.941 1.212-.57.291-1.422 1.094-1.422 1.573 0 .307.182.521.498.715.23.153 1.691.682 2.094.784.832.204 4.037 1.171 4.957 1.47 1.908.621 3.105 1.266 3.561 1.636.236.19.629.696.76.963.148.275.168.499.195.587.014.051-.027.074-.047.074-.059 0-.436-.253-.684-.362-.158-.076-.943-.386-1.191-.499-.369-.161-2.238-.873-2.998-1.069-.773-.204-2.617-.687-2.711-.711-.096-.043-2.086-.595-2.191-.629-.105-.031-2.213-.716-2.461-.804-1.051-.386-1.773-1.039-1.857-1.126-.062-.062-.219-.186-.213-.368.078-1.683-.291-2.372-.377-2.527-.084-.154-.365-.732-.82-.783-.502-.051-.803.264-.955.453a6.97 6.97 0 0 0-.875 1.43c-.082.171-.066.117-.211.479-.111.266-.094.83.182 1.083.123.114.508.286.625.304.238.033.611.159.701.204.068.048.16.085.16.141 0 .057-.16.171-.258.235-.096.068-.514.343-.779.547-.27.208-1 .751-1.869.915-.518.104-1.607-.345-1.811-1.253-.189-.833.393-1.921.375-2.009-.049-.249-.158-.093-.158-.093s-.58 1.201-.688 1.807c-.043.206-.33 1.489.233 2.171m4.666-4.138l-.299-.061s-.223-.099-.201-.283c.029-.188.254-.49.676-.446.428.04.533.644.562.752.021.113.055.386.008.386-.037 0-.326-.148-.441-.211-.129-.062-.186-.107-.305-.137"/><path d="M258.391 8.625c.129.009.496-.073.631-.079.145-.009.549-.031.689-.048.146-.021.219-.074.277-.093.049-.028.049-.066.119-.034a.387.387 0 0 1 .131.181.54.54 0 0 1 .02.211c-.02.062 0 .173 0 .173s.008.045.119-.011a.47.47 0 0 0 .248-.334c.004-.125-.033-.473-.02-.515.02-.036.148-.161.215-.249.061-.091.199-.288.217-.464.027-.173-.035-.44-.131-.533-.094-.091-.482 0-.59.021-.111.028-.229.146-.297.212-.145.153-.35.408-.336.556.025.146.076.23.125.272.049.042.076.097.076.131 0 .035-.107.082-.201.104-.082.021-.469.077-.625.099-.16.023-.48.138-.561.159-.076.02-.238.125-.238.125s.001.095.132.116m1.841-1.342c.072-.023.17-.065.268-.014.092.042.105.166.105.233 0 .06.023.131-.045.224-.041.056-.109.04-.109.04s-.127-.097-.186-.176c-.061-.082-.127-.13-.121-.188.004-.071.016-.096.088-.119M220.643 11.099c.234.25 1.301 1.457 1.48 1.67.178.206 1.584 1.779 1.99 2.381.201.297.307.618.307.733-.008.071.135.134.156.108.035-.056.035-.496.016-.695-.008-.127-.209-.732-.285-1.048-.107-.48-.746-1.352-.992-1.674-.256-.311-1.338-1.604-1.5-1.743-.158-.142-.338-.605-.338-.78 0-.168.143-.625.18-.716.035-.085.02-.085-.217-.193a5.634 5.634 0 0 0-.701-.286c-.227-.066-.84-.335-.84-.335l-.072.108s-.074.334-.09.453c-.018.13-.053.465.09.895.142.428.585.87.816 1.122M212.582 18.217l.041.011.02-.141s.023.009-.049-.074a.63.63 0 0 1-.127-.366c-.008-.168.162-.553.367-.992.191-.443.686-1.372.787-1.585.1-.215.43-.935.475-1.06.047-.133.209-.462.232-.611.01-.146-.152-.476-.152-.476s-.051-.039-.078-.039c-.029 0-.055.039-.055.039s-.027.092-.041.131c-.012.032-.084.242-.182.446-.096.195-.689 1.508-.77 1.638-.08.127-.734 1.425-.758 1.499-.018.066-.172.333-.197.679-.027.341.16.507.248.607.087.098.239.294.239.294M207.16 23.913c.047.028.059-.062.059-.062s.023-.128.008-.302c-.008-.182.016-.604.016-.604 0-.235.148-1.263.162-1.408.006-.144.047-.785.027-.952-.021-.164-.285-.374-.285-.374l-.098.053v.705c0 .253-.148 1.214-.154 1.361-.008.148-.045.575-.025 1.006.017.423.237.553.29.577"/><path d="M205.148 29.664c.125.233.73 1.091.857 1.182.121.093.248.156.389.108.137-.042.385-.346.574-.64.191-.294.668-1.326.82-1.649.152-.323.812-1.78.906-2.086.092-.318.969-2.527 1.492-3.453.701-1.247 1.215-1.732 1.635-1.95.314-.161.691-.106.768-.091.08.017.041.061.033.186-.016.124-.24.419-.348.686-.109.26-1.18 2.646-1.32 3.006-.139.359-1.24 2.816-1.322 3.017-.082.204-1.139 2.91-1.244 3.106-.932 1.595-1.797 1.771-2.295 1.878-.494.113-2.223.014-2.223.014s0 .076.152.188c.154.111.436.325.598.422.154.093.463.359.629.433.17.078.145.033.393.078.25.048.984-.028 1.119-.028.148 0 .643-.034.762.014.131.045.174.216.266.422.096.206.316.889.41 1.224.086.348.324 2.715.354 3.007.037.298.049.951.049.951s.125.108.186.02a3.99 3.99 0 0 0 .264-.459c.111-.198.17-.456.217-.696.055-.233.254-.969.283-1.493.031-.53-.348-1.59-.465-1.904-.125-.306-.201-.445-.496-.792a3.517 3.517 0 0 0-.656-.515c-.049-.017-.012-.137-.012-.137s.506-.36.912-.689c.414-.332.779-1.088.92-1.482.143-.39.926-2.365 1.062-2.686.139-.329.979-2.276 1.143-2.712.178-.431 1.426-3.225 1.502-3.428.08-.199.389-.779.436-.885.045-.11.031-.079 0-.124-.029-.053-.936-1.264-1.219-1.578-.275-.308-.357-.365-.883-.414-.531-.046-1.031.171-1.775 1.052-.744.887-1.592 2.935-1.74 3.306-.156.368-1.186 2.739-1.344 3.116-.156.371-1.123 2.346-1.311 2.29-.104-.04-.168-.425-.168-.748 0-.326-.016-1.062.016-1.981.031-.921.305-1.881.361-2.006.045-.128.008-.141-.021-.236-.035-.095-.188-.275-.326-.564-.141-.278-.322-.573-.322-.573h-.121s-.113.295-.135.408c-.01.109.037.093-.059.275-.092.191-.199 1.236-.264 1.576-.068.346-.143 1.777-.029 2.443.118.738.463 1.353.59 1.591M201.732 39.485c.164.124.869.519.986.547.125.039.59.091.859-.086.266-.176.451-.51.514-.698.055-.186.201-.838.236-1.019.066-.42.248-.683.293-.75.053-.068.148-.156.186-.114.029.031.145.247.182.331.016.06.424 1.012.506 1.598.389 2.946-.451 3.678-1.441 4.106-.994.43-2.312-.743-2.494-.899-.174-.153-.662-.56-.662-.56l-.018.077s.291.41.422.507c.146.1 1.543 1.219 1.721 1.304.176.077 1.162.949 2.666.133 1.473-.793 1.186-3.451 1.18-3.63-.004-.178-.143-.613-.174-.732a29.718 29.718 0 0 0-.459-1.295c-.094-.218-.404-.68-.502-.834-.092-.147-.549-.448-.637-.515-.1-.073-.512-.36-.674-.495-.168-.128-.238-.206-.512-.198-.248.017-.609.439-.748.685-.086.171-.246.703-.307 1.109-.062.407-.324 1.119-.707 1.101-.277-.02-.738-1.113-.764-1.493-.109-1.882 1.326-1.688 1.326-1.688l-.002-.19-.32-.226c-.104-.068-.467-.338-.791-.436-.125-.043-.457.028-.689.105-.611.198-.686.468-.742.552-.135.173-.184.857-.074 1.187.271.818.582 1.331.684 1.527.216.414.783.859.956.989"/><path d="M202.562 31.966c.061.071.408.52.459.553.045.04.135-.006.195-.049.053-.039.367-.318.477-.433.109-.122.32-.32.408-.375.082-.058.057-.108.057-.138 0-.028-.09-.181-.139-.256-.047-.078-.598-.753-.707-.85-.107-.104-.234.029-.312.097-.076.066-.805.753-.805.753l-.016.139s.016.023.051.09c.041.072.272.4.332.469M208.611 41.995c.074-.068.285-.26.385-.328.1-.063.1-.051.178-.105.078-.057.047-.144-.029-.305-.082-.153-.695-.938-.695-.938l-.119-.025-.123.025-.773.727c-.041.04-.041.159-.025.227.01.069.096.11.176.252.08.13.453.629.453.629s-.02.096-.043.148c-.027.057-.576.495-.656.572-.082.079-.008.201.029.313.041.107.246.338.316.44.072.105.389.465.389.465l.162.014s.178-.163.244-.217c.066-.052.402-.385.49-.436.086-.056.043-.146.027-.218-.01-.063-.127-.253-.225-.391a4.974 4.974 0 0 0-.375-.46c-.037-.039-.023-.083-.008-.136.007-.051.156-.187.222-.253M213.82 17.19c-.053.057.004.286.041.357.037.068.141.431.314.802.178.363.236.289.324.308.086.021.266.094.352.126.098.043.338.147.672.243.33.09.303.221.303.221.096.451-.006 1.368-.033 1.535-.039.153-.18.958-.244 1.128-.051.115-.205.764-.346 1.11-.064.144-.336.977-.406 1.211a46.584 46.584 0 0 1-.434 1.349c-.066.179-.297.906-.297.906l.043.014s.277-.287.334-.369c.059-.081.459-.522.531-.621.082-.093.604-.777.715-.924.104-.146.475-.56.625-.832.191-.34.322-.665.357-.822.029-.157.143-.705.168-.82.031-.114.074-.68.078-.834a7.081 7.081 0 0 0-.057-.883c-.031-.161-.225-.601-.256-.69-.039-.082-.154-.283-.189-.368-.012-.057-.018-.116.055-.124.07-.003.35-.056.461-.096.107-.028.043-.021.529-.255.484-.229 1.162-.983 1.307-1.127.145-.139.75-.91.822-1.012.072-.106.453-.723.48-.77.029-.043.139-.019.168.006.035.024.338.258.479.393.189.181.695.43 1.043.48.244.042.834 0 .977-.28.285-.584-.086-1.4-.18-1.653a27.008 27.008 0 0 0-.664-1.44c-.066-.11-.334-.632-.879-.66-.545-.026-1.055.561-1.146.674-.086.105-.172.294-.234.354-.059.06-.066.029-.104.029-.035-.001-.334-.263-.4-.333-.07-.068-1.064-1.034-1.18-1.208-.143-.22-.016-.456.041-.614.068-.181.213-.512.213-.512l-.086-.216s-.207-.048-.705-.031c-.502.025-1.039-.166-1.039-.166s-.074.042-.082.066c-.012.019-.025-.204.008.475.029.586.186.834.312 1.003.066.096.406.475.521.601.105.131.91.957 1.096 1.136.191.181.865.854.908.898.039.043.014.08-.004.129-.023.05-.297.402-.357.5-.066.091-.658.768-.932 1.052-.381.402-1.115.954-1.545 1.088-.336.108-.812.042-1.018.02-.205-.012-1.072-.494-1.17-.522-.094-.032-.243-.076-.29-.032m7.68-2.863c.252.021.592.146.652.771.029.233-.533.252-.756.208-.104-.019-.332-.154-.41-.208-.08-.054-.213-.122-.213-.122l-.035-.136s.364-.536.762-.513M209.869 17.19c.027.042.125.15.164.207.041.054.117.334.203.435.057.057.174.255.297.332a.414.414 0 0 0 .33.048.798.798 0 0 0 .287-.269.767.767 0 0 0 .068-.36c0-.253-.127-.504-.227-.674-.137-.226-.307-.355-.43-.36-.121-.008-.225.046-.342.122-.127.08-.43.313-.43.313s-.012.07 0 .107c.014.046.051.059.08.099m.418.135s.217-.223.354-.25c.148-.028.17-.02.189.008.025.031.033.213.008.298a.566.566 0 0 1-.143.252.267.267 0 0 1-.268.109c-.084-.019-.08-.109-.09-.142-.004-.036-.031-.088-.045-.124a.29.29 0 0 0-.043-.093c-.019-.019.038-.058.038-.058M282.277 37.751c-.377-.824-1.104-2.165-1.301-2.51-.195-.343-.701-1.062-.701-1.062s-.418-.091-.568-.119c-.143-.023-.311 0-.311 0s.461.605.807 1.173c.689 1.121.834 1.496 1.174 2.144.24.47.6 1.402.951 2.007.342.604.828 1.627 1.1 1.825 0 0 .283.278.641.218.131-.029.072-.029.115-.048-.682-1.012-1.184-2.066-1.907-3.628M280.213 39.942c-.191.068-.461.284-.434.468.027.119.242.216.396.221.227.006.789 0 .834.006.029.009.059-.006.084.063.047.106-.141.19-.162.208-.018.019-.033.042-.006.079.064.077.281.102.479.04.197-.065.379-.337.322-.5-.051-.173-.896-.088-.984-.077-.088.003-.459.028-.326-.178.135-.208.357-.238.594-.363.23-.126.354-.165.375-.266.02-.136-.15-.239-.229-.271-.307-.102-.713.031-.713.031s-.207.092-.092.235c.037.051.111.068.162.082.037.017.068.046.037.083-.03.044-.144.067-.337.139"/><path d="M270.568 17.497s-2.789.227-3.232 2.457c-.156.768.354 1.675.596 2.23.254.589 1.002 1.709 1.484 2.396.33.462 1.221 1.542 1.486 1.893.424.58 1.459 1.317 1.676 1.481.295.216.973.521 1.061.562.168.082.43.105.545.218.059.051-.027.076-.027.076s-.102.056-.281.295c-.188.246-.371.729-.371 1.198 0 .337.176.768.33.927.156.168.412.353.797.41.256.04.516.056.617.066.096.009.096.051.105.122.012.07-.053.244-.078.45-.027.198-.109 1.096-.096 1.583.012.487.105 1.456.137 1.764.049.474.576 3.375.699 3.82.168.574.84 2.578.871 2.677.191.467.611 1.125.684 1.235.066.105.16.257.234.334.055.057.949.243 1.131.278.186.034.678.08 1.023.023.275-.039.447-.151.578-.236.121-.088.283-.221.451-.375.168-.15.244-.203.262-.309.004-.062-.258-.144-.574-.223-.324-.076-.932-.141-.932-.141s-.248.313-.312.371c-.086.07-.252.278-.402.255-.188-.037-.775-1.493-.943-1.951-.412-1.174-.715-2.848-.783-3.103-.068-.252-.396-2.327-.447-2.95-.049-.475-.158-1.963 0-2.78.066-.378.182-.793.354-1.128.049-.116-.02-.266-.195-.266-.119 0-.678 0-1.166-.008-.482-.006-.6-.392-.689-.726-.086-.343-.014-1.029.438-1.428.219-.182.828-.414 1.051-.524.225-.104 1.164-.638 1.408-.822.154-.118 1.719-1.173 1.785-1.227.066-.061.105-.066.066-.152-.018-.035-.18-.071-.334-.08-.141-.011-.92-.093-1.109-.062-.178.028-1.902 1.289-2.008 1.343-.102.06-.859.68-1.309.542-1.547-.468-3.162-2.538-3.285-2.677-.172-.188-1.82-2.515-2.158-3.08-.145-.226-.77-1.3-.908-2.124-.302-1.781 1.77-2.634 1.77-2.634"/><path d="M278.766 29.457s-.234.008-.256.213c-.01.074-.014.233-.045.331-.025.088-.154.627-.119.817.027.183.367.235.543.314.182.066.604.134.781.171.18.046.299-.131.311-.25.008-.113.141-.793.141-.969s.041-.173-.287-.349c-.47-.235-1.069-.278-1.069-.278M273.736 22.712c-.02.298.432.627.49.7.053.062-.039.076-.102.069a2.796 2.796 0 0 1-.805-.28c-.316-.168-.936-.585-1.137-.777-.129-.128-.443-.414-.494-.465-.053-.05-.068-.002-.068-.002s.137.339.229.476c.07.101.738 1.199 1.557 1.459.475.141.865.071 1.02.046.268-.059.574-.181.707-.263.135-.083.221-.141.211-.215a.332.332 0 0 0-.098-.213 1.936 1.936 0 0 1-.43-.476c-.107-.188-.094-.301-.059-.333.094-.099.232-.019.402.096.17.121.488.353.525.487a.681.681 0 0 1 .02.308c-.029.124.062.153.062.153s.625-.377.615-.709c-.014-.313-.289-.53-.371-.558-.301-.111-.525-.167-.764-.161-1.115.05-1.492.406-1.51.658M274.287 20.184c-.373-.011-1.035-.478-1.117-.516-.096-.049-.104-.019-.113 0-.02.029.133.202.133.202s.246.221.389.325c.137.102.475.257.785.277.316.023.658-.163.834-.261.172-.086.051-.24.051-.24s-.443-.483-.602-.695c-.16-.203-.285-.104-.285-.104l-.637.3s.352.247.496.378c.05.056.386.338.066.334M271.621 18.056c.154.136.338.096.338.096s.855-.425.883-.453c.01-.031.018-.09-.008-.09-.041-.008-.365-.082-.488-.308-.119-.238-.057-.434.09-.521.262-.144.779-.33.779-.33s.229-.071.279-.085c.031-.009.016-.063.008-.072-.066-.028-.25-.026-.352-.026-.127.008-.453.119-.521.142-.072.02-.689.256-.842.34-.15.09-.461.263-.504.609-.031.341.178.565.338.698M281.182 32.846c.938.062.896-.49.891-.587-.008-.097.006-.17-.137-.345-.139-.164-1.562-.331-1.604.355-.025.374.58.558.85.577m-.129-.764c.037-.051.139-.021.139-.021s.137-.02.189.101c.086.215-.033.371-.172.348-.123-.019-.219-.113-.209-.25.01-.135-.025-.076.053-.178M267.707 68.828l-.947 1.014 1.111 2.523-1.854-1.728-.787.837 5.621 5.244.785-.843-2.051-1.914c.918.374 2.82 1.086 2.82 1.086l.971-1.04-4.24-1.5-1.429-3.679zM274.146 68.15l-3.695-2.688-.68.937 3.465 2.516c.309.226 1.666 1.167 1.291 1.685-.381.524-1.686-.48-2.002-.703l-3.465-2.523-.674.938 3.688 2.682c1.43 1.035 2.932 1.603 3.719.53.777-1.08-.223-2.339-1.647-3.374M273.004 60.75l3.627 2.692c-1.264-.445-4.393-1.41-4.393-1.41l-.352.684 3.715 2.743c-1.254-.45-4.297-1.39-4.297-1.39l-.545 1.068 7.633 2.282.404-.783-3.48-2.573c1.219.425 4.121 1.304 4.121 1.304l.396-.778-6.289-4.91-.54 1.071zM273.994 58.888l6.814 4.336.416-1.126-1.344-.865.426-1.175 1.574.22.418-1.147-7.99-1.092-.314.849zm4.817.942l-.229.604-1.582-.91c.693.135 1.811.306 1.811.306M282.523 57.61l-7.518-1.596.24-1.127 7.517 1.594zM277.719 51.212l-1.531-.32-.608 2.826 1.535.325.18-.856 5.984 1.281.242-1.127-5.984-1.278zM253.574 77.904c-.988.385-.906 2.398-.201 4.246.729 1.892 2.014 3.419 2.998 3.04.988-.382.918-2.372.195-4.269-.712-1.846-2-3.393-2.992-3.017m2.201 5.732c-.379.141-1.195-.817-1.594-1.855-.426-1.095-.41-2.158-.01-2.313s1.127.626 1.553 1.722c.399 1.039.432 2.293.051 2.446M261.072 79.629l-.644-1.427-1.106.499-.543-1.199 1.19-.526-.633-1.438-2.238 1.008 3.123 7.013 1.052-.468-1.318-2.963zM231.23 80.312c.566-1.393.336-2.195-.527-2.547l-1.117-.451-2.879 7.126 1.371.554c.848.338 1.707-.132 2.262-1.51.262-.651.438-1.532.105-2.014.342-.256.625-.74.785-1.158m-1.912 2.63c-.326.802-.625.719-.994.57l.656-1.612c.338.136.645.277.338 1.042m.86-2.949c-.25.634-.441.681-.678.599l.605-1.488c.196.095.321.274.073.889M234.121 78.838l-3.387 7.14 1.191.249.678-1.41 1.232.262v1.541l1.203.248-.023-7.846-.894-.184zm-.267 4.76l-.641-.13.695-1.654c-.047.689-.054 1.784-.054 1.784M239.105 84.182c-.357-1.255-1.459-4.73-1.459-4.73l-.824-.085-.818 7.596 1.109.108.465-4.388c.359 1.255 1.457 4.728 1.457 4.728l.826.088.814-7.542-1.107-.112-.463 4.337zM245.271 79.728l-1.391.048-.99 2.57-.092-2.531-1.152.041.266 7.68 1.16-.042-.109-2.808c.385.915 1.23 2.765 1.23 2.765l1.42-.045-1.932-4.062 1.59-3.616zM203.232 57.102l1.618-.464.373 1.284 1.502-.433-.368-1.286 1.256-.358.383 1.334 1.502-.43-.699-2.443-7.389 2.118.709 2.442 1.494-.431zM210.93 60.456l-4.117 1.831c.939-.977 3.475-3.765 3.475-3.765l-.352-.789-7.199 3.205.471 1.046 4.16-1.848c-.939.972-3.473 3.765-3.473 3.765l.348.791 7.156-3.191-.469-1.045zM211.988 65.531l1.319-.823-1.528-2.454-1.322.828.457.738-5.195 3.246.611.975 5.197-3.242zM217.598 69.396l-6.574 4.685.895.807 1.299-.922.932.835-.791 1.385.902.807 4.006-6.994-.669-.603zm-2.67 4.107l-.486-.438 1.447-1.124c-.393.586-.961 1.562-.961 1.562M204.82 54.542l-.32-.847c-.432.046-.875.101-1.277.046-.434-.054-.709-.21-.816-.497-.125-.333-.006-.594.287-.819.33-.243.832-.45 1.527-.599 1.168-.258 2.424-.324 2.711.424.094.25.047.438-.08.583-.225.252-.574.38-.973.519l.318.848.4-.113c1.555-.422 2.145-1.371 1.836-2.179-.213-.569-.762-.951-1.65-1.114-.803-.156-1.732-.113-2.754.117-1.311.29-2.289.709-2.826 1.286-.398.43-.506.876-.34 1.329.203.511.67.871 1.434 1.054.848.196 1.584.113 2.523-.038M212.225 71.387c.453-.394.553-.805.553-.805l.041-.289s.164.12.764-.066c.879-.288 1.803-1.324 2.059-1.875.121-.258.035-.879.035-.879l-1.424-1.867s-.812.65-.895.719c-.074.072-1.156.89-1.234.949-.074.057-1.904 1.507-1.973 1.551s-1.721 1.339-1.752 1.374c-.039.033-.02.095.014.111.035.021.691.83.691.83l.727-.567a49.164 49.164 0 0 0 1.234-.981c.029-.024.096-.011.096-.011s.266.315.32.448c.051.133.07.177-.02.385-.191.41-.85.867-.994 1.011l-.664.652.703.904s.25-.26.375-.368c.115-.101.348-.337.492-.479.147-.137.4-.355.852-.747m.283-2.904c.094-.074.475-.382.553-.447.074-.051.309-.244.35-.274.049-.037.145-.104.145-.104s.42.443.447.576c.023.143-.021.339-.107.422a5.138 5.138 0 0 1-.697.467c-.107.046-.197.106-.314-.019-.121-.116-.428-.498-.428-.498s-.041-.069.051-.123M276.146 42.724c-.074.046-.771.522-.771.522l-.023.116s.002.016.027.077c.021.065.172.37.213.438.047.068.268.485.311.522.031.037.115.006.166-.013.049-.024.352-.224.455-.303.104-.086.307-.226.389-.255.08-.037.066-.09.066-.11a1.19 1.19 0 0 0-.08-.233c-.033-.066-.402-.708-.479-.8-.078-.096-.199-.007-.274.039M219.709 71.545l-4.619 5.823 1.801 1.388.941-1.186-.916-.706 3.676-4.641zM266.848 47.528c-.283 0-.342-.075-.674-.191-.336-.112-.6.116-.973.144-.369.026-.332-.027-.957-.144-.631-.112-.875.116-.875.116l-.127-.019c.162-.159.26-.26.26-.26s.258-.013.375-.19c.053-.085.082-.271.082-.271l.115-.229-.238-.252s-.076.003-.15.109c-.082.108-.141 0-.305.059-.18.053-.17.39-.17.39s-.215.194-.332.337c-.119.148-.57.565-.756.81-.18.251-2.693 2.705-2.799 2.804-.104.105-.984.938-1.184 1.056-.205.13-.771.987-.936 1.07-.164.082-.078-.147-.078-.147s.156-.227.324-.463c.168-.231.342-.396.441-.556.104-.166.662-.689.764-.838.1-.138.463-.543.5-.613a.353.353 0 0 0-.182-.485c-.301-.121-.42.104-.584.212-.168.096-.369.398-.455.5-.084.105-.023.326-.023.326s-.08.172-.18.249c-.107.08-.303.363-.426.483-.121.127-.322.685-.684.685-.141 0-2.174.143-2.174.143s-.047 0-.105-.105a4.457 4.457 0 0 0-.291-.412c-.119-.166-.289-.286-.289-.286s.018-.085.018-.144c0-.062.107-.127.107-.127l.045-.156s.58.063.742.105c.164.043 1.141.298 1.277.358.154.066.168.184.168.184s.115-.019.115-.101c0-.083-.051-.205-.088-.351-.041-.141-.084-.587-.146-.953-.059-.374-.168-2.046-.205-3.061-.047-1.014.246-3.25.352-3.916.104-.674.742-3.221.914-3.782.162-.564 1.018-2.51 1.248-3.112.217-.595 1.504-2.937 1.631-3.161.123-.23 1.457-2.451 1.609-2.636.137-.181.678-1.04.74-1.098.059-.064.275-.227.418-.287.146-.061.227-.168.227-.289 0-.127-.102-.127-.244-.167-.141-.04-.164.04-.342.167-.172.121-1.699 1.072-1.988 1.267-.289.181-6.285 4.109-6.621 4.372-.328.272-3.094 2.059-3.238 2.059-.146 0-.043-.584-.043-.751 0-.161.068-1.513.068-1.513l-.191-.057s-.17.305-.27.448c-.104.147-.293.26-.293.26s0 .019-.09-.135c-.074-.151-.428-1.263-.531-1.64-.104-.371-.607-2.099-.607-2.099s.279-.328.482-.638c.209-.306 1.375-1.852 1.598-2.202.23-.355 1.703-2.08 2.215-2.655.326-.345 1.461-1.658 1.873-2 .412-.334 1.33-.784 1.498-.864.16-.083.148-.269.107-.381-.041-.11-.197-.079-.275-.079-.09 0-.393.233-.537.315-.143.08-1.205.683-1.551.864-.355.192-3.062 1.752-3.518 2.017-.449.27-5.285 2.989-5.734 3.228-.438.233-7.367 4.205-7.367 4.205s-.514.329-.641.354c-.121.02-.166-.229-.285-.578a52.078 52.078 0 0 0-.828-2.034c-.107-.213-.414-1.313-.504-1.559-.074-.249-.295-.482-.295-.482s-.061.46-.209.728c-.143.267-1.945 4.573-2.074 4.82-.131.243-.889 2.017-.889 2.017s-5.125 2.84-5.482 3.066c-.359.23-4.604 2.677-4.967 2.924-.355.249-4.002 2.264-4.002 2.264s-.148.062-.102.208c.041.142.352.523.352.523s-.027.08-.371.514c-.357.433-1.414 2.166-1.785 3.267-.209.621-.438 2.223-.484 2.427-.041.213-.268.348-.268.348l.043.233s.604 0 .877.017c.266.019 1.201.043 1.471.064.268.021 1.969.145 2.285.167l2.553.172s.516.453.873.785c.357.324.865.831 1.223 1.082.346.239 1.184.979 1.473 1.327.303.348 1.332 1.204 1.621 1.451.283.243 1.635 1.449 1.635 1.449s.57-.086 1.268.07c.594.114 2.014.485 3.076.518 1.518.034 2.766-.374 3.32-.509.555-.128 1.369-.282 2.404-.117.617.099 1.941.4 2.432.52.492.126 1.475.126 2.789-.159.562-.127 1.715-.589 3.207-.569.584.011 1.217.19 1.902.384.68.186 2.004.485 3.934.077 2.113-.443 1.58-.657 3.391-.525.85.064 1.348.284 1.678.414.336.127 1.143.133 1.143.133s0-.04-.164-.08c-.166-.04-.461-.076-.75-.183-.291-.096-.271-.113-.229-.239.041-.13.289-.371.451-.518.166-.14.629-.665.857-.875.227-.206.514-.6.615-.677.105-.082.09-.09.09-.236.008-.141 0-.702 0-.867.008-.167.189-.19.393-.403.209-.201.926-.962 1.104-1.143.186-.173.6-.637.6-.637s.141.042.227.101c.08.065.143.026.143.026l.377-.438s-.051-.161-.244-.296a3.473 3.473 0 0 0-.746-.369c-.209-.061-.439 0-.439 0s-.035.144-.145.229c-.105.081-.086 0-.566-.019-.475-.024-.957.019-1.389.037-.432.021-.754.143-.754.143s.045-.143.146-.271c.107-.119.627-.594.816-.801.178-.208.936-1.041 1.18-1.308.18-.189 1.533-1.543 2.301-2.313-.139.211-.326.484-.484.711-.287.395-2.148 1.983-2.148 1.983l1.363-1.113.346-.014c.064-.032.121-.077.182-.123-.098.073-.182.147-.309.168-.197.027.451-.032.85 0 .398.027.869.363 1.217.363.344 0 1.1-.17 1.395-.08.277.08.473.229.473.229s.088-.255.199-.429l.283-.396s-.162-.006-.562-.145c-.393-.137-1.043-.031-1.365-.058-.303-.021-.586-.021-.723-.079-.02-.006-.037-.004-.057-.009.006.003.012-.003.021 0l.438-.591c-.23-.045-.209-.078-.336-.216.129.138.105.171.354.223.277.051.422.051.734.107s.57-.062.791-.083c.338-.024.564.083.732.112.166.026.225.148.225.148s.033-.091.26-.207c.221-.107.197-.338.314-.476l.254-.34s-.291.135-.572.135m-15.971-9.788c.148-.051.215-.051.154-.223-.057-.168-.189-.221-.154-.314.031-.106.068-.133.148-.174.076-.042 1.729-1.094 1.814-1.176.096-.071.572-.411.621-.442.037-.034 4.064-2.643 4.242-2.743s2.748-1.861 2.885-1.938c.141-.079.762-.548.816-.593.055-.039.098-.099.164-.061.047.046.014.105 0 .163-.025.062-1.521 2.513-1.711 2.885-.193.366-1.641 3.087-1.836 3.553a199.85 199.85 0 0 0-.926 2.239c-.121.301-.666 2.426-.812 2.885-.186.59-.586 3.386-.633 3.817-.064.489-.025 3.243.041 3.719.055.47.135 1.244.172 1.36.039.118.139.633.139.633l-.119.065s-.6-.246-.842-.286c-.244-.038-.812-.153-.875-.215-.059-.062-.012-.253-.018-.417-.021-.369-.305-1.312-.406-1.635-.098-.318-.789-2.929-.877-3.146-.102-.218-1.129-3.888-1.211-4.189-.082-.303-.174-.7-.219-.87-.033-.179-.254-.484-.336-.858-.082-.372-.143-.677-.176-.842-.047-.164-.117-.343-.199-.615-.078-.278-.119-.458-.119-.458s.126-.067.273-.124m-.84 4.667c0-.114.053-1.572.09-1.674.021-.091.066-.502.094-.637.029-.146.078-.3.078-.3s.326 3.029.326 3.293.211 5.344.238 5.687c.023.329.072 1.408.057 1.479-.012.069-.098.125-.098.125s-1.139-.125-1.205-.169c-.072-.043-.055-.123-.055-.123s.084-1.655.104-1.88c.002-.122.234-3.78.25-3.831.006-.055.121-1.865.121-1.97m-.514-5.911c.053-.026.094.124.123.211.029.083.098.25.078.36-.012.117-.107.252-.201.365-.104.114-.984.562-.984.562s.031-.187.066-.226c.043-.042.158-.21.219-.337.051-.124.402-.627.521-.782.108-.153.12-.121.178-.153m-.669-2.398c.08.258.277.937.311 1.051.027.114.211.654.219.742.012.086-.166.28-.264.42-.09.146-.748 1.266-.922 1.496-.094.114-.488.794-.488.794s-.094.079-.133.136c-.037.06-.447.26-.561.343-.107.08-1.506.99-1.674 1.109-.156.116-2.148 1.41-2.148 1.41s-.102-.006-.148-.037c-.053-.031.055-.258.102-.363.039-.104.303-.858.365-.98.061-.131.309-.718.369-.867.066-.148.773-1.671.863-1.805.088-.144.766-1.43.822-1.583.055-.162 1.143-1.957 1.266-2.133.115-.182.922-1.428 1.043-1.63.117-.196.211-.256.279-.236.07.019.1.15.152.261.047.104.146.521.191.63.029.105.279.986.356 1.242m-8.456 15.738c-.049.039-.129.068-.129.068s-.031-.127-.057-.278a86.476 86.476 0 0 0-.645-2.464c-.084-.253-.266-1.081-.32-1.273-.057-.197-.152-.619-.195-.755-.043-.143-.055-.27-.055-.27s.461-.304.557-.304.135 0 .197.153c.055.151.473 1.411.531 1.587.055.158.506 1.393.561 1.607.055.209.27.95.27.95s-.26.286-.336.479c-.086.176-.336.457-.379.5m.139 2.883s-.684-.223-.73-.223c-.045 0-.322-.029-.309-.127.016-.096.715-1.066.715-1.066s.229.902.254.99c.025.101.07.426.07.426m-1.578-9.873c.078.218.273.351.273.351l.158.407.104.406-.596.328s-.162-.572-.162-.711c0-.13-.051-.43-.051-.43l-.191-.185-.133-.028s-1.352-5.36-1.383-5.581c-.029-.216-.244-.947-.244-1.11 0-.164.109-.298.109-.298s.299.625.346.952c.064.325.979 3.057 1.061 3.221.084.159.76 2.191.76 2.191l.055.212c-.001 0-.19.059-.106.275m2.482 3.35c.078.135.188.082.203.166.016.088.35.913.35.913s-.029.233-.145.348c-.109.113-.293.396-.293.396s-.082.014-.141-.088c-.053-.099-.797-2.209-.84-2.337-.039-.128-.449-1.129-.449-1.246 0-.111-.068-.15 0-.199.074-.037.35-.216.35-.216s.143-.088.215.122c.066.213.693 1.723.693 1.723s-.011.281.057.418m.327 3.456c.012.083-.027.184-.027.184l-.096-.224c-.035-.056 0-.172 0-.172s.111.128.123.212m-1.174.953c.072-.075.359-.534.42-.63.055-.101.227-.35.227-.35s.107-.084.123-.031c.01.058.18.464.193.525l.104.389s-.439.115-.619.122c-.188.019-.422.06-.422.06s-.1-.019-.026-.085m1.035.188l.098.009s.404 1.09.531 1.491c.123.41.27.819.318.912.061.099.084.339.084.339h-.084s-.43-.211-.533-.24c-.094-.021-.25-.021-.264-.179-.012-.151-.066-1.15-.078-1.233a11.272 11.272 0 0 1-.072-.793v-.306zm.221-.495c-.025-.041-.047-.178-.047-.178l.047-.117.133.348c-.001 0-.1-.013-.133-.053m-.071-1.333a.329.329 0 0 1 .014-.222c.031-.066.438-.601.438-.601s.094 0 .125.04c.025.038.098.229.109.292.018.072.674 1.655.721 1.711.031.057-.062.152-.062.152l-.822.087s-.115-.212-.129-.271c-.014-.053-.15-.347-.166-.442-.013-.099-.204-.632-.228-.746m.545-2.127l-.166-.056-.225-.547s.031-.177-.041-.332c-.068-.151-.309-.31-.309-.31s-.143-.38-.182-.518c-.039-.139-.516-1.094-.549-1.19-.021-.096.018-.179.018-.179s.514-.394.648-.462c.125-.071 1.193-.816 1.396-.935.193-.13 1.092-.607 1.326-.827.24-.231 2.494-1.596 2.494-1.596s.043.054.021.141c-.004.086-.221.386-.273.473-.059.082-.281.433-.447.699-.174.266-.984 1.539-1.193 1.83-.059.083-1.385 2.218-1.465 2.258-.09.042-.143.209-.143.209l-.91 1.342zm-5.383-12.942c.057-.045 2.109-1.291 2.268-1.363.162-.074 1.029-.529 1.141-.612.123-.088 2.686-1.568 2.836-1.653.143-.086 1.787-1.003 1.9-1.073.119-.074 1.713-.981 1.869-1.088.166-.097 2.996-1.635 3.111-1.755.115-.119 1.277-.747 1.463-.839.193-.079 1.207-.671 1.34-.745.135-.074.465-.266.568-.337.105-.074.162-.014.162-.014s-1.963 2.156-2.164 2.417c-.217.266-1.594 1.954-1.795 2.23-.205.28-.746 1.059-.799 1.13-.062.074-.34.524-.426.524-.088 0-.088-.105-.121-.203-.027-.102-.246-.811-.305-1.012-.061-.21-.158-.42-.178-.555-.012-.139-.059-.291-.158-.328-.104-.043-.16-.146-.256-.056-.086.08-.186.297-.127.411.051.119.561 1.695.586 1.844.029.145.191.445.133.519a4.448 4.448 0 0 0-.393.557c-.104.17-1.188 1.904-1.324 2.091-.141.188-1.672 2.93-1.787 3.16-.115.24-1.102 2.089-1.217 2.32-.113.236-.506 1.261-.572 1.408-.055.144-.133.229-.141.35-.02.119.051.028-.037.241-.084.201-.262.68-.289.742-.033.063-.727.448-.793.499-.053.059-.6.484-.658.484s-.045.114-.148-.045c-.1-.161-.467-1.069-.525-1.204-.057-.131-.922-2.299-1-2.499a46.629 46.629 0 0 0-.877-2.042c-.102-.204-.629-1.581-.719-1.768-.092-.193-.365-.96-.439-1.151-.072-.186-.174-.286-.174-.377 0-.088-.015-.158.045-.208m-.287.364c.049.134 2.652 6.262 2.736 6.474.084.218.699 1.731.787 1.896.076.161.295.652.244.76-.057.106-.436.267-.436.267s-.191-.433-.27-.593-.135-.218-.135-.218l-.191.057s-1.572-4.797-1.654-4.956c-.078-.163-.646-1.924-.701-2.086-.057-.162-.271-.76-.301-.917-.031-.17-.217-.765-.217-.765s.076-.051.138.081m-.187.627c.051.11.236.652.236.652l-.129.049-.193-.567-.055-.247s.084 0 .141.113m.722 4.521c.029.271.877 3.517.896 3.631.027.105.113.512.113.512l.162.164s.084.349.133.57c.057.214.025.323.025.323s-.32.134-.537.408c-.115.137-.49.297-.49.297l-.027.191.109.212s.133 0 .244-.026c.109-.027.109 0 .109 0l-.49.628s-.051-.41-.051-.52c0-.108-.652-4.44-.732-4.732-.08-.305-.488-3.039-.488-3.258 0-.212-.186-1.754-.215-1.947-.029-.188 0-.647 0-.647h.188c.001-.001 1.032 3.923 1.051 4.194m.309 12.232l.035.22-.219-.093.184-.127zm-1.088.186c-.258.076-.904.28-.904.28s.062-.674.092-.804c.025-.119.125-.448.211-.827.084-.375.43-1.13.514-1.396.088-.265.703-1.398.703-1.398s.193 1.261.207 1.414c.014.149.252 2.298.252 2.298s-.029 0-.152.096c-.13.097-.677.248-.923.337m-.406-17.101l-.188.029v-.192h.135l.053.163zm-.17-.876l-.156.102s-.051-.312-.066-.428c-.014-.121-.08-.833-.08-.833l.302 1.159zm.658 9.241c.025.219.053.513.053.513s-.406.19-.346.49c.049.298.127.515.268.488.125-.026.217-.082.217-.082s.217 2.028.244 2.222c.021.185.051.405.051.405s-.162.187-.295.535c-.139.358-.572 1.062-.703 1.389-.139.321-.459 1.162-.52 1.483a9.53 9.53 0 0 1-.189.841c-.025.113-.078.164-.078.164s-2.035-.353-2.49-.379c-.467-.029-.52.026-.709-.057-.189-.076-.432.027-.432-.076 0-.111.033-.677.08-.842.053-.161.516-3.52.623-3.791.111-.275.244-1.379.273-1.547.027-.164.027-.348.027-.348s.189-.083.217-.247c.029-.159.051-.32.029-.433-.029-.105-.197-.353-.197-.353s.6-3.168.619-3.414c.027-.24.414-2.43.467-2.782.057-.355.08-1.306.164-1.44.082-.133.047-.133.162-.243.111-.11.922-.542.922-.542l.109.223.436-.031.998 7.854zm-1.056-8.175l-.109.029-.023-.17.133-.081v.222zm-.78-3.665c.029-.119.199-1.088.199-1.088s.104.51.121.666c.014.15.123 1.209.184 1.496.045.291.215 1.844.215 1.844s-.084.074-.205.122a6.532 6.532 0 0 0-.531.323c-.133.082-.562.292-.562.292l.102-.784c.021-.119.088-.805.156-.978.063-.166.284-1.778.321-1.893m-2.324 4.371c.053-.17.707-1.714.74-1.822.029-.108.484-1.186.572-1.321.088-.141.346-.799.395-.935.057-.134.348-.764.359-.836.018-.068.121-.238.121-.238l.018.156s-.408 2.518-.461 2.757c-.049.237-.152.961-.186 1.097a2.858 2.858 0 0 0-.051.472c0 .071-.059.164-.059.164s-.695.337-.797.425c-.1.082-.564.332-.637.369-.066.036-.219.125-.219.125s.154-.24.205-.413m-.68 1.447c.047-.151.152-.305.152-.305s.824-.413.973-.502c.156-.083.525-.268.592-.317.074-.054.279-.134.279-.134s-.346 2.639-.457 3.08c-.168.6-.541 3.231-.541 3.42 0 .184-.141.729-.195.887-.057.164-.078.399-.021.507.053.105.156.13.164.233.016.11 0 .249-.031.308-.027.049-.084.124-.123.124-.029 0-.104 0-.094-.031.012-.039.084-.077.125-.145.031-.07.016-.128.008-.212-.014-.094-.045-.15-.098-.19-.061-.046-.158-.039-.223.043-.07.083-.051.235-.057.325-.006.093-.055.315-.059.373-.01.051-.086.46-.1.505-.006.049-.43 1.967-.48 2.202a80.622 80.622 0 0 0-.379 1.995 7.134 7.134 0 0 1-.137.791c-.049.169-.133.506-.152.6-.016.081-.035.317-.123.317-.082 0-1.623-.118-1.895-.137-.27-.012-1.566-.1-1.734-.08-.17.011-1.15 0-1.25-.02-.102-.015-.119.03-.131-.052-.023-.089-.092-.17 0-.242.082-.061 1.381-2.819 1.514-3.069.139-.255 1.072-2.443 1.197-2.667.113-.215.803-1.782.871-1.937.07-.154.977-2.201 1.023-2.356.049-.15.785-1.932.881-2.136.107-.202.454-1.024.501-1.178m-13.05 7.274l.418-.255c.139-.085.652-.389.826-.483.186-.09 1.633-.912 1.84-1.04.209-.124 1.188-.679 1.311-.765.125-.085.975-.502 1.213-.651.23-.151 1.533-.857 1.633-.904.111-.049 1.277-.759 1.529-.904.264-.136 1.801-1.017 1.918-1.08.111-.073 1.783-1.044 1.859-1.063.082-.022.059.039.068.069.004.031-.068.128-.09.179-.02.066-.143.377-.176.464-.035.079-.414.915-.469 1.072-.049.159-.744 1.625-.822 1.8-.084.178-1.289 2.854-1.338 2.989a75.175 75.175 0 0 1-.969 2.224c-.068.144-.789 1.764-.85 1.892-.064.124-.551 1.238-.664 1.464-.111.237-.494 1.126-.613 1.281-.107.162-.607.074-.672.066-.066-.007-.375.07-.574 0-.189-.066-2.039-1.515-2.473-1.904-.686-.61-2.818-2.732-2.869-2.775-.053-.048-.469-.538-.5-.57-.029-.034-.162-.167-.162-.238 0-.066.061-.111.148-.238.101-.124.478-.63.478-.63m6.546 6.596c0 .036-.027.055-.062.113-.039.05-.088.136-.088.136s-.043.031-.115.031c-.07 0-.523-.287-.523-.287s.014-.06.07-.061c.059-.011.172.001.295 0 .123-.011.412.001.412.001s.011.036.011.067m-7.337-6.292c.1-.059.232-.116.232-.116l-.324.368s-.021.024-.061-.048c-.041-.071.053-.142.153-.204m3.248 7.395s-1.26-.035-1.412-.052a83.911 83.911 0 0 0-1.898-.103c-.119 0-.891-.031-1.01-.051-.117-.021-.217-.05-.373-.065-.152-.02-.262-.02-.342-.046-.076-.032-.172-.085-.107-.109a39.855 39.855 0 0 1 1.689-.297c.135-.016.922-.147 1.088-.153.16-.005.719-.064.902-.079.178-.015.254 0 .301-.026.049-.017.131-.077.131-.077s.459.439.533.49c.066.054.273.238.373.318.096.09.189.176.189.205 0 .036-.064.045-.064.045m-.858-1.146c.008-.042-.004-.011.064-.093.07-.091.402-.438.402-.438s.092-.104.182-.066c.084.04.209.174.209.174l-.039.141-.342.361c-.041.037-.088.151-.172.136-.08-.016-.105 0-.17-.085-.062-.087-.138-.094-.134-.13m1.77-.085a.427.427 0 0 1-.152-.066s-.297-.205-.391-.268c-.076-.064-.639-.359-.746-.412-.096-.044-.244-.106-.332-.146a1.513 1.513 0 0 0-.516-.095c-.213 0-.295.248-.324.37-.029.126.125.371.186.465l.09.144s-.006.044-.055.058c-.047.012-.49.048-.568.057-.078.005-.596.081-.742.108-.148.026-1.971.275-2.129.294-.152.019-1.018.208-1.09.186-.062-.021 0-.151-.01-.251-.012-.093.041-.616.045-.723.006-.098.225-.861.246-1.025.018-.166.266-.685.453-1.131.143-.34.375-.69.408-.767.027-.079.396-.587.549-.853.178-.315.576-.852.596-.926.012-.066.17-.181.17-.181s.291.298.379.403c.082.102.484.54.557.644.062.104.43.475.508.556.08.074.971.932 1.066 1.025.105.09.861.766.977.861.109.104.848.712.914.78.072.071.797.612.883.674.088.066.107.079.107.119 0 .043-.066.054-.066.054s-.246.037-.402.028c-.162-.009-.553.031-.611.018m2.631 1.204c-.047.071-.078.154-.135.151-.049-.013-.076-.013-.215-.063-.145-.061-.211-.096-.271-.122-.051-.02-.113-.02-.154.026-.053.04-.035.101-.096.087-.066-.018-.102-.022-.158-.079a7.01 7.01 0 0 0-.6-.424 5.97 5.97 0 0 1-.541-.378c-.117-.1-.23-.152-.234-.183-.008-.032.004-.056.004-.056s.828-.058.924-.058c.107 0 .215-.057.312.028.09.085.643.47.754.528.125.066.285.154.352.202.074.036.119.076.119.076s.031.024.027.075a.665.665 0 0 1-.088.19m.925.287s-.244-.021-.348-.008c-.109.016-.273.034-.322.008-.045-.027-.072-.008-.045-.069.021-.063.021-.104.064-.173.033-.069.016-.079.051-.099.041-.025.057-.042.057-.042s.225.096.299.157c.076.062.166.119.215.156.045.042.029.07.029.07m4.952.05c-.014.035-.037.186-.078.229-.037.047-.363-.079-.426-.106-.062-.035-.359-.158-.482-.254-.125-.109-.262-.199-.322-.199-.062 0-.125.073-.125.073s.113.208.113.301c0 .073-.021.073-.059.088-.035.015-1.059-.009-1.129-.015-.066-.008-.873-.034-.961-.068a.442.442 0 0 1-.252-.18c-.053-.091-.111-.187-.201-.229-.08-.041-.254-.041-.344-.079a5.82 5.82 0 0 1-.559-.258c-.127-.074-.277-.103-.35-.164-.066-.061-.082-.043-.051-.151.029-.096.088-.119.154-.195.061-.082.135-.271.135-.271s2.748.05 2.916.073c.158.029 1.469.106 1.578.109.111.006.441.006.533.023.096.017.162.083.148.125-.008.047-.166.624-.166.708.002.085-.063.398-.072.44m.595-.64c-.045.08-.074.562-.123.683-.061.127-.072.181-.115.198-.041.017-.104.051-.125.017-.029-.042-.068-.101-.029-.226.045-.127.113-.465.17-.698.053-.239.082-.382.082-.382l.041-.138s.143-.066.158.019c.012.077-.016.435-.059.527m.059-.755c-.072 0-.174.018-.133-.115.051-.122.451-2.346.48-2.488s.57-2.857.6-2.968c.031-.115.117-.604.127-.672.016-.068.029-.199.029-.199l.096.017s-.125.657-.152.842c-.029.178-.195 1.035-.211 1.145-.01.111-.303 1.734-.324 1.875a56.852 56.852 0 0 1-.307 1.746c-.037.212-.055.45-.098.604-.035.157-.035.213-.107.213m.125 1.596c0-.056.141-.957.166-1.093.027-.141-.012-.252.096-.265.113-.011 2.609.332 2.771.353.17.011.699.151.773.178.068.026.08.21.068.308-.01.096-.121.21-.143.295-.008.08.021.127.074.181.059.059.096.125.166.066.072-.051.055-.181.145-.218.08-.046.75-.215.92-.281.168-.069.717-.224.717-.224s.521.051.566.255c.061.187.061.85.061.85s-3.332-.141-3.459-.141c-.123 0-2.729-.125-2.799-.154-.068-.029-.122-.054-.122-.11m6.408 1.062s-.027 0-.055.06c-.033.049-.033.049-.17.134-.141.085-.268.088-.447.088-.186 0-1.736-.027-1.889-.027-.156 0-1.529-.035-1.662-.035-.145 0-.535-.159-.68-.245-.135-.088-.779-.293-.779-.293l.014-.103s.705.044.816.061c.109.013 1.146.042 1.338.051.197.019 2.602.185 2.873.185.268 0 .652.032.652.032l-.011.092zm.447-2.378c-.037-.071-.318-2.054-.35-2.271-.027-.207-.23-1.623-.23-1.732 0-.11-.02-.336-.02-.336s.867-1.459.924-1.523c.053-.074.113-.181.113-.181s.062-.107.152-.018c.082.081.656 2.487.699 2.687.037.197.49 2.142.516 2.21.027.067.1.311.086.364-.012.058-.209.419-.26.435-.061.014-1.209.313-1.336.337-.13.028-.249.095-.294.028m.055.29c.014-.054 1.291-.332 1.291-.332s-.441.754-.486.838c-.061.083-.104.138-.104.138s-.166-.055-.275-.095a3.75 3.75 0 0 0-.381-.101s-.055-.388-.045-.448m.168 1.193a17.379 17.379 0 0 1-.039-.563l.416.201s-.01.195-.1.276c-.078.086-.162.212-.162.212s-.096-.038-.115-.126m.268 1.285c-.113-.029-.121-.108-.113-.218.016-.119-.064-.157.045-.173.104-.016.672.074.814.049.135-.033.334-.118.334-.229 0-.111.037-.295-.055-.321-.102-.027-.17-.027-.217-.027-.035 0-.307.009-.307-.045 0-.055.244-.432.244-.432s.721.18.822.207c.098.029.447.21.447.21l.027.308c.02.167.061.39.088.5.023.114.043.159.043.159s-2.063.041-2.172.012m2.41-1.15l-.447-1.812s-.047-.102.027-.127c.072-.032.738-.104.738-.104l.211 2.228s.014.072-.102.045c-.109-.035-.427-.23-.427-.23m.42 1.249c-.086-.012-.129-.025-.156-.163a3.458 3.458 0 0 0-.113-.41c-.012-.056-.051-.207-.051-.207l.051-.117.379.128s.059.141.137.141c.088 0 .156-.029.156-.029l.928.389.096.314c-.002-.002-1.341-.029-1.427-.046m1.705-.333c-.055.017-.115.038-.154-.062-.039-.094-.068-.207-.096-.273-.029-.075-.52-1.542-.617-1.794-.1-.247-.182-.562-.238-.684-.051-.125-.068-.154-.027-.191.037-.046.102-.046.102-.046s.605 1.704.668 1.877c.055.161.264.737.297.849.018.112.119.306.065.324m1.283-.296c-.082.056-.738.617-.814.617-.059 0-.119-.058-.119-.116 0-.051-.221-.642-.252-.709-.029-.073-.754-2.156-.801-2.269-.041-.113-.08-.156-.08-.27 0-.104.014-.104.098-.122.08-.017.826-.075.826-.075s.752 1.815.824 1.951c.072.143.318.711.334.813.019.094.072.123-.016.18m2.332-1.789c-.047.142-.131.797-.16.911a1.904 1.904 0 0 0-.068.293c-.016.085-.068.123-.068.123s-.184.014-.279.014c-.102 0-.266.06-.266.06s-.17.12-.154.181c.012.057-.016.255-.016.255l-.07.077-.061.309s-.053 0-.121-.051c-.068-.06-.209-.086-.209-.148 0-.045.012-.139.012-.139s-.041-.048-.109-.08c-.076-.031-.211-.055-.211-.055s-.713-1.749-.773-1.887c-.057-.146-.375-.745-.375-.842 0-.1-.059-.148-.029-.18.029-.05.057-.09.279-.09.219 0 1.484-.071 1.637-.071s.762-.014.912-.014h.293l.039.014c-.002-.001-.17 1.182-.203 1.32m.404-2.165s-.043.191-.086.304c-.029.111-.086.307-.086.307s-1.723.048-1.945.067c-.209.025-1.234.09-1.289.084-.062-.008-.1-.068-.145-.165a48.187 48.187 0 0 0-.508-1.18c-.039-.102-.303-.749-.369-.918-.041-.133-.166-.239-.166-.338 0-.104-.008-.132.033-.182.039-.052 1.055-1.621 1.102-1.686.053-.059.133-.141.145-.266.008-.129.029-.286.029-.286s1.213-1.929 1.342-2.125c.127-.198 1.713-2.723 1.754-2.831.047-.107.447-.756.57-.876.117-.118.768-.535.861-.634.102-.105.562-.361.648-.445.092-.077.395-.278.449-.314.055-.044.223-.062.223-.062s.152.266.152.413c0 .151-1.139 9.737-1.172 10.079-.037.343-.227 1.738-.227 1.738l-.824-.075.059-.185-.1-.192s.152-.302.152-.495v-.407s.146-.422.113-.532c-.043-.116-.092-.228-.248-.186-.15.032-.211.296-.211.296l-.037.456s-.316.217-.242.41c.078.186.023.226.023.226m1.301 1.026c-.016.06-.182 1.561-.197 1.686s-.07.544-.07.544-.043.138-.111.138c-.072 0-.586.031-.674.043-.084.018-.135 0-.135 0s-.074-.111-.059-.168c.016-.05.186-1.193.213-1.315.023-.125.105-.729.123-.802.012-.065.012-.082.041-.146.025-.071.113-.114.113-.114s.639-.047.727 0c.084.042.037.081.029.134m.545 2.306h-.455l1.24-11.749s-.033.312 0 .459c.045.148-.369 6.151-.406 6.639-.037.489-.379 4.651-.379 4.651m1.889-.199c-.08 0-1.141.153-1.246.153-.102 0-.264.019-.227-.133.045-.138.045-1.215.066-1.347.02-.133.02-.729.02-.729s0-.122.178-.122c.193 0 .957.05 1.041.07.082.035.195 0 .211.06.016.056 0 .119 0 .119s.039 1.428.061 1.513c.021.081.045.314.045.314s-.067.102-.149.102m2.22-1.624s-.078.061-.16.187c-.084.121-.021.318-.021.318l.139.19s-.078.224-.139.321c-.062.106-.248.467-.248.467l-1.082.083s-.02-.083-.02-.197c0-.109-.061-.82-.09-.926-.012-.105-.074-.831 0-.849.09-.026.584.034.836.081.246.035 1.012.244 1.012.244l.023.122-.25-.041zm.26-.324c-.09-.015-1.955-.229-1.955-.341 0-.107-.104-1.755-.096-1.817.02-.057.088-.233.059-.337-.029-.094-.162-.266-.162-.349a30.47 30.47 0 0 1-.09-1.3c0-.104-.307-3.87-.307-3.944 0-.083-.115-1.46-.115-1.599v-.643c0-.085.023-.236.023-.236s.244.264.287.443c.045.187.59 2.17.645 2.396.055.223 1.146 4.197 1.188 4.364s.391 1.6.457 1.737c.045.136.318.963.287 1.041-.029.065-.129.093-.168.218-.043.124.025.381-.053.367m.111 1.673l.146-.25.15.19-.296.06zm9.727-4.908c.084.063.238.178.387.3-.148-.122-.303-.233-.391-.297l.004-.003zm-.043 1.334c.111-.029.203-.061.283-.079-.08.018-.172.052-.283.079M255.652 59.722c-1.582-.057-2.924.734-4.475.734-1.607 0-2.33-.538-4.439-.538a7.726 7.726 0 0 0-2.283.314 8.971 8.971 0 0 1-2.197.355c-1.641.052-2.951-.67-4.555-.67-.938 0-1.646.188-2.346.376-1.598.448-2.717.605-4.412.172-.621-.155-1.189-.342-1.881-.422-1.094-.132-1.693.118-1.924.25.039.076.09.162.148.271l.018-.008c.99-.547 2.557-.039 3.559.213.633.156 1.311.289 2.236.26 1.584-.062 3.016-.799 4.602-.799.764 0 1.467.158 2.203.35 1.25.329 2.406.423 3.68.186 1.199-.226 1.791-.535 3.152-.535 2.109 0 2.832.539 4.439.539.783 0 1.51-.182 2.266-.396 1.371-.385 2.639-.53 3.988.036.27.119.545.276.848.337.059-.107.121-.207.156-.291-.117-.008-.217-.046-.344-.09-.962-.377-1.255-.6-2.439-.644M251.18 61.898c-1.609 0-2.33-.548-4.441-.548a7.672 7.672 0 0 0-2.281.315c-.73.201-1.434.336-2.197.353-1.643.053-2.953-.668-4.557-.668-.936 0-1.646.192-2.344.387-1.602.443-2.719.598-4.416.169-.623-.164-1.186-.344-1.877-.426a4.29 4.29 0 0 0-1.227.01l.174.282c.932-.118 2.066.238 2.852.438.625.155 1.309.288 2.236.257 1.584-.063 3.016-.804 4.602-.804.764 0 1.469.158 2.203.353 1.25.329 2.406.425 3.68.184 1.199-.221 1.791-.536 3.152-.536 2.111 0 2.832.547 4.441.547.783 0 1.51-.191 2.26-.396 1.373-.392 2.643-.535 3.99.037l.139.062.162-.257c-.701-.284-1.061-.462-2.078-.494-1.583-.058-2.924.735-4.473.735M251.18 63.329c-1.609 0-2.33-.538-4.441-.538a7.628 7.628 0 0 0-2.281.317 9.568 9.568 0 0 1-2.197.353c-1.641.044-2.953-.67-4.557-.67-.936 0-1.645.186-2.344.376-1.602.443-2.719.605-4.416.172-.623-.156-1.186-.334-1.877-.424-.109-.01-.215-.024-.312-.024.08.114.156.221.24.333.672.084 1.348.281 1.871.419a7.51 7.51 0 0 0 2.236.257c1.584-.056 3.016-.799 4.602-.799.764 0 1.469.16 2.203.353 1.25.324 2.406.422 3.68.184 1.199-.221 1.791-.536 3.152-.536 2.111 0 2.832.542 4.441.542.783 0 1.51-.187 2.26-.398 1.162-.323 2.232-.479 3.348-.173l.191-.272c-.354-.109-.727-.176-1.326-.205-1.583-.061-2.924.733-4.473.733M251.18 64.767c-1.609 0-2.33-.543-4.441-.543a7.575 7.575 0 0 0-2.281.321c-.73.193-1.434.328-2.197.353-1.641.047-2.953-.674-4.557-.674-.936 0-1.645.19-2.344.382-1.602.442-2.719.6-4.416.17-.328-.083-.645-.17-.969-.256.107.136.219.279.336.412.199.051.383.103.555.151a7.933 7.933 0 0 0 2.236.255c1.584-.057 3.016-.8 4.602-.8.764 0 1.469.162 2.203.352 1.25.325 2.406.421 3.68.186 1.199-.23 1.791-.537 3.152-.537 2.111 0 2.832.545 4.441.545.783 0 1.51-.188 2.26-.403.824-.229 1.604-.372 2.391-.329l.23-.292a8.051 8.051 0 0 0-.408-.027c-1.583-.056-2.924.734-4.473.734M246.738 65.659a7.595 7.595 0 0 0-2.283.32c-.73.196-1.43.332-2.195.353-1.643.053-2.953-.673-4.557-.673-.936 0-1.645.189-2.346.382-1.395.392-2.426.557-3.781.314.117.123.236.242.363.372.354.039.732.061 1.162.046 1.584-.056 3.014-.802 4.602-.802.764 0 1.467.162 2.203.355 1.25.323 2.406.417 3.68.181 1.199-.218 1.789-.536 3.152-.536 2.109 0 2.832.547 4.439.547.783 0 1.51-.187 2.266-.4.373-.1.742-.191 1.096-.245.115-.125.225-.246.328-.366-1.262.152-2.4.697-3.689.697-1.608 0-2.33-.545-4.44-.545M246.738 67.104a7.845 7.845 0 0 0-2.283.311c-.73.2-1.43.332-2.195.359-1.643.044-2.953-.67-4.557-.67-.936 0-1.645.178-2.346.377-.793.223-1.471.37-2.164.411.111.097.223.189.346.282 1.408-.149 2.719-.765 4.164-.765.764 0 1.467.164 2.203.353 1.25.326 2.406.42 3.68.187 1.199-.226 1.789-.539 3.152-.539 2.109 0 2.832.547 4.439.547.488 0 .959-.071 1.432-.179.162-.148.328-.294.479-.444-.621.164-1.242.31-1.91.31-1.608-.001-2.33-.54-4.44-.54M244.457 68.848c-.73.201-1.434.337-2.199.357-1.641.049-2.951-.677-4.555-.677-.938 0-1.646.191-2.344.386-.221.063-.43.121-.637.172.111.074.225.149.334.224.869-.216 1.73-.463 2.646-.463.764 0 1.467.157 2.207.352 1.248.323 2.402.422 3.676.18 1.199-.218 1.791-.531 3.152-.531 1.805 0 2.602.398 3.805.518.137-.1.273-.188.412-.288-1.457-.048-2.207-.548-4.217-.548-1.073-.002-1.682.163-2.28.318M244.457 70.287a9.21 9.21 0 0 1-2.199.358c-1.639.043-2.951-.676-4.555-.676-.5 0-.939.056-1.338.138l.463.246c.287-.049.576-.071.875-.071.764 0 1.467.159 2.207.349 1.248.329 2.402.424 3.676.19 1.199-.224 1.791-.539 3.152-.539.783 0 1.375.077 1.889.168.152-.072.305-.146.447-.223-.627-.126-1.32-.258-2.336-.258a7.661 7.661 0 0 0-2.281.318"/><path d="M242.16.312c-24.766 0-44.846 20.08-44.846 44.841 0 24.771 20.08 44.848 44.846 44.848S287 69.924 287 45.152c0-24.761-20.074-44.84-44.84-44.84m0 88.753c-24.252 0-43.91-19.664-43.91-43.913 0-24.247 19.658-43.906 43.91-43.906 24.248 0 43.908 19.659 43.908 43.906 0 24.249-19.66 43.913-43.908 43.913"/><path d="M242.16 12.643c-17.953 0-32.514 14.555-32.514 32.51 0 17.959 14.561 32.516 32.514 32.516 17.959 0 32.516-14.557 32.516-32.516 0-17.956-14.557-32.51-32.516-32.51m0 64.403c-17.613 0-31.895-14.281-31.895-31.894 0-17.609 14.281-31.887 31.895-31.887 17.609 0 31.893 14.278 31.893 31.887 0 17.613-14.283 31.894-31.893 31.894M8.106 72.67l-1.585 1.542-.513-.425c.063-.08.125-.162.176-.244.06-.491-.125-.711-.263-1.064-1.049-.833-2.524-.724-3.385.396-.25.423-.45.833-.561 1.296-.376 2.036.386 4.153 2.234 5 .91.3 1.325.218 2.159.149.338-.219.613-.245.739-.793h.623v1.968c-2.685.629-5.981.027-7.267-2.854-.513-1.175-.587-2.431-.288-3.661.387-1.282 1.036-2.348 2.21-2.963.725-.3 1.46-.478 2.272-.478 1.437.054 2.537.97 3.449 2.131M16.082 80.494H8.653v-.505c.099-.042.249-.068.349-.097.037-.027.062-.096.125-.122.037-.056.087-.151.111-.219 0-.138.026-.288.026-.424v-7.005c0-.122-.026-.272-.026-.396-.024-.083-.074-.191-.111-.271a.663.663 0 0 1-.199-.18c-.09 0-.201-.027-.275-.027v-.504h7.067v1.924h-.624c-.037-.122-.088-.271-.111-.396-.114-.082-.203-.149-.263-.246-.051-.025-.139-.056-.2-.081h-3.546v2.513h2.434c.174-.028.312-.068.487-.124.051-.026.1-.094.164-.122.086-.138.148-.329.199-.479h.522v2.444h-.522c-.026-.082-.076-.231-.088-.313-.025-.055-.076-.108-.111-.15-.113-.056-.213-.107-.363-.149h-2.721v3.781h3.284c.163 0 .362-.026.522-.054.063-.028.151-.068.203-.096.048-.026.136-.11.199-.137.048-.056.099-.136.138-.191.035-.109.086-.231.148-.34h.612v1.966zM25.544 80.494h-2.36v-.505c.062 0 .15-.042.226-.042.05-.055.138-.108.224-.177a5.23 5.23 0 0 0 .088-.219c0-.055.037-.138.037-.206V77.6l-4.758-4.974v6.693c0 .122.063.232.063.328.05.067.074.123.125.191.099.054.211.108.349.15v.505h-2.436v-.505c.074 0 .175-.042.25-.042.049-.026.086-.082.148-.108a.58.58 0 0 0 .137-.191c.026-.206.051-.384.051-.613V71.85c0-.056-.025-.151-.025-.207-.026-.053-.049-.136-.074-.188-.063-.056-.125-.085-.151-.151-.086 0-.236-.056-.337-.056v-.504h2.647l4.009 4.343v-2.908c0-.208-.063-.426-.076-.615-.025-.056-.074-.138-.101-.193-.15-.026-.275-.095-.399-.122v-.504h2.36v.504c-.086 0-.174.056-.263.056-.036.096-.125.189-.173.26-.026.189-.088.407-.088.615v7.167c.025.096.062.206.088.302.024.067.074.123.111.191.037.026.1.054.15.082.037.026.124.026.174.068v.504zM34.108 72.778h-.575c-.024-.15-.074-.3-.099-.41-.025-.067-.087-.123-.113-.178a.478.478 0 0 1-.15-.136 3.535 3.535 0 0 0-.512-.056h-1.536v7.033c0 .231.025.438.063.615a.698.698 0 0 1 .138.22c.148.025.261.081.437.122v.505h-2.986v-.505c.113-.041.187-.041.3-.07a.37.37 0 0 0 .176-.149c.036-.055.086-.15.111-.218 0-.178.037-.355.037-.52v-7.033h-1.561a1.816 1.816 0 0 0-.499.124c-.088.067-.162.178-.236.271-.039.124-.102.273-.125.384h-.564v-2.036h7.693v2.037zM40.812 73.297c-.087-.369-.238-.601-.425-.9a2.401 2.401 0 0 0-.91-.426c-.164 0-.289-.025-.462-.025H37.34v3.168h1.737c1.035-.001 1.834-.656 1.735-1.817m2.497 7.197h-2.247l-2.361-4.234H37.34v2.774c0 .229.051.407.088.613.025.067.076.123.101.191a.64.64 0 0 1 .148.082c.063.026.151.026.201.068v.505h-2.81v-.505l.138-.042c.086-.026.162-.082.224-.108.039-.068.101-.124.151-.191.023-.178.048-.424.048-.613v-6.855c0-.178-.025-.357-.025-.535a1.13 1.13 0 0 0-.113-.188c-.023-.056-.086-.085-.124-.151-.076 0-.226-.056-.3-.056v-.504h4.734c1.409.094 2.596.886 2.808 2.457-.024.861-.236 1.734-.949 2.295-.337.218-.711.41-1.111.506l2.06 3.495c.113.095.212.218.325.342.138.054.25.108.375.15v.504zM49.349 75.714l-1.198-3.168-1.111 3.168h2.309zm3.809 4.78h-2.984v-.547c.087-.026.201-.055.311-.082.026-.026.076-.068.102-.095.062-.083.087-.205.125-.273-.039-.122-.09-.233-.125-.355l-.825-2.199H46.64l-.787 2.199c0 .122-.051.233-.051.355 0 .068.026.15.076.244.139.098.312.151.437.206v.547h-2.522v-.547c.125-.026.211-.055.337-.082.025-.026.074-.095.099-.124.101-.189.226-.396.326-.6l2.984-8.397H49.4l3.184 8.697c.063.07.125.178.174.273.051.026.101.124.163.15.088.027.164.056.238.082v.548zM60.897 80.494H54.18v-.505c.049-.042.148-.042.199-.068.074-.082.176-.18.263-.273.023-.178.05-.384.05-.613V72.18c0-.208-.026-.426-.05-.615a.68.68 0 0 1-.15-.193c-.088-.026-.199-.095-.312-.122v-.504h2.785v.504c-.088 0-.201.056-.263.056a.864.864 0 0 1-.188.231c-.036.108-.062.26-.086.368v7.389h2.623c.125 0 .298-.028.462-.028.125-.067.263-.122.388-.178.023-.052.074-.082.137-.122.062-.096.11-.205.148-.327.025-.082.051-.232.074-.313h.638v2.168zM72.369 78.008c.138-.695-.137-1.543-.7-1.912a10.35 10.35 0 0 1-.35-.176 8.616 8.616 0 0 0-.924-.136h-1.898v3.563h1.949c.825-.081 1.749-.341 1.923-1.339m-.637-5.434c-.051-.096-.086-.18-.137-.248-.15-.094-.325-.203-.475-.3-.187-.054-.375-.08-.587-.122h-2.035v2.703h1.922c.488-.067.825-.178 1.226-.505.325-.532.298-.983.086-1.528m2.36 4.561c.113.996-.049 1.788-.674 2.484-.474.478-1.075.725-1.686.848-.174 0-.361.027-.561.027h-4.92v-.504c.125-.043.224-.071.312-.098.063-.054.15-.178.2-.245.024-.096.051-.206.051-.328v-7.471a1.05 1.05 0 0 0-.051-.285c-.05-.11-.136-.166-.2-.26-.088 0-.187-.055-.312-.055v-.507h4.895c1.162.07 2.148.655 2.436 1.928.024.409-.051.777-.138 1.159-.349.656-.799 1.078-1.499 1.354 1.024.218 1.885.887 2.147 1.953M80.483 75.714l-1.198-3.168-1.111 3.168h2.309zm3.808 4.78h-2.984v-.547c.086-.026.201-.055.312-.082.025-.026.076-.068.101-.095.062-.083.088-.205.125-.273-.037-.122-.088-.233-.125-.355l-.824-2.199h-3.122l-.787 2.199c0 .122-.051.233-.051.355 0 .068.025.15.076.244.138.098.312.151.438.206v.547h-2.524v-.547c.125-.026.213-.055.338-.082.025-.026.074-.095.099-.124.101-.189.224-.396.326-.6l2.982-8.397h1.861l3.185 8.697c.063.07.125.178.173.273.051.026.102.124.164.15.086.027.162.056.236.082v.548zM93.729 80.494h-2.36v-.505c.062 0 .15-.042.226-.042.05-.055.138-.108.224-.177a5.23 5.23 0 0 0 .088-.219c0-.055.037-.138.037-.206V77.6l-4.759-4.974v6.693c0 .122.063.232.063.328.05.067.074.123.125.191.099.054.211.108.349.15v.505h-2.436v-.505c.074 0 .174-.042.25-.042.049-.026.086-.082.148-.108a.615.615 0 0 0 .138-.191c.026-.206.051-.384.051-.613V71.85c0-.056-.024-.151-.024-.207-.026-.053-.051-.136-.074-.188-.063-.056-.125-.085-.151-.151-.086 0-.236-.056-.337-.056v-.504h2.647l4.009 4.343v-2.908c0-.208-.063-.426-.076-.615-.024-.056-.074-.138-.099-.193-.151-.026-.275-.095-.4-.122v-.504h2.36v.504c-.086 0-.174.056-.263.056-.036.096-.125.189-.173.26-.026.189-.088.407-.088.615v7.167c.025.096.062.206.088.302.024.067.074.123.111.191.037.026.101.054.15.082.037.026.125.026.174.068v.504zM103.541 80.494h-3.059v-.505a.698.698 0 0 1 .312-.068c.049-.056.111-.124.137-.18-.026-.094-.026-.149-.051-.229l-2.559-4.083-1.224 1.31v2.773c.025.08.049.176.088.259.05.026.099.095.161.122.076.028.152.055.238.097v.505h-2.76v-.505c.076-.042.176-.042.25-.068a.78.78 0 0 0 .176-.15c.036-.056.086-.151.111-.219 0-.177.024-.355.024-.518V72.18c0-.208-.024-.426-.049-.615a1.908 1.908 0 0 1-.15-.193 1.104 1.104 0 0 0-.363-.122v-.504h2.76v.504c-.086.027-.187.096-.263.122-.037.056-.086.138-.136.193-.039.189-.088.382-.088.615v2.853l2.872-3.154c.024-.082.076-.206.102-.286-.026-.056-.051-.136-.077-.191-.048-.029-.15-.056-.199-.096-.076-.028-.138-.028-.236-.056v-.504h3.383v.504c-.273.027-.462.122-.711.207-.101.08-.213.175-.312.216l-.325.355-2.035 2.077 3.347 5.408c.136.136.224.259.399.381.074.028.15.055.236.097v.503zM116.649 75.591c-.013-1.98-1.312-3.796-3.124-3.77-1.834.029-3.171 1.953-3.009 3.961.201 2.473 1.312 3.619 3.072 3.619 1.812 0 3.073-1.83 3.061-3.81m1.684-.069c.088 2.882-2.173 5.189-4.808 5.176-2.584-.013-4.743-2.226-4.757-5.052-.012-2.828 2.109-5.067 4.697-5.123 2.597-.052 4.769 1.681 4.868 4.999M126.834 72.819h-.661c-.039-.123-.09-.273-.125-.425-.025-.068-.039-.12-.063-.162a1.015 1.015 0 0 0-.199-.136c-.052-.042-.126-.07-.188-.098-.149-.026-.35-.026-.499-.053h-3.372v2.688h2.648c.1 0 .223-.026.323-.026.088-.067.199-.096.262-.149.089-.122.139-.272.215-.396h.536v2.402h-.536c-.026-.109-.052-.231-.076-.341-.014-.028-.088-.082-.113-.15a2.378 2.378 0 0 0-.263-.164c-.1-.027-.248-.027-.374-.056h-2.622v3.62c.025.096.062.191.062.271.074.098.138.193.213.247.076.026.187.055.263.097v.505h-2.834v-.505c.099-.042.224-.07.298-.097.039-.025.1-.096.125-.123a1.21 1.21 0 0 0 .113-.218c0-.11.025-.26.025-.382v-6.993c0-.204-.025-.422-.051-.613a2.25 2.25 0 0 1-.148-.192c-.039-.027-.088-.067-.137-.096-.051 0-.15-.026-.224-.026v-.507h7.404v2.078zM140.966 80.494h-3.061v-.505a.704.704 0 0 1 .312-.068.866.866 0 0 0 .138-.18c-.025-.094-.025-.149-.051-.229l-2.559-4.083-1.225 1.31v2.773c.025.08.051.176.089.259.048.026.1.095.161.122.075.028.149.055.238.097v.505h-2.761v-.505c.076-.042.175-.042.251-.068a.824.824 0 0 0 .174-.15 1.19 1.19 0 0 0 .113-.219c0-.177.024-.355.024-.518V72.18c0-.208-.024-.426-.049-.615a1.923 1.923 0 0 1-.151-.193 1.083 1.083 0 0 0-.362-.122v-.504h2.761v.504c-.089.027-.188.096-.263.122-.037.056-.089.138-.137.193-.038.189-.089.382-.089.615v2.853l2.872-3.154c.025-.082.076-.206.101-.286-.024-.056-.051-.136-.075-.191-.05-.029-.15-.056-.199-.096-.076-.028-.138-.028-.238-.056v-.504h3.385v.504c-.275.027-.463.122-.713.207-.101.08-.212.175-.312.216l-.324.355-2.035 2.077 3.348 5.408c.136.136.226.259.398.381.074.028.149.055.238.097v.503zM149.766 80.494h-3.758c-1.549 0-2.884-.547-3.634-2.063-.536-1.173-.611-2.389-.287-3.659.162-.491.337-.983.55-1.42.262-.533.562-1.105.861-1.652 0-.069-.062-.164-.062-.244-.049-.029-.1-.085-.162-.111-.075 0-.176-.04-.263-.04v-.56h2.746v.56c-1.473.819-2.096 3.154-2.096 4.82.024.791.213 1.476.674 2.145.586.695 1.199.901 2.059.955h1.113V72.18c0-.208-.025-.426-.051-.615a.472.472 0 0 0-.086-.108c-.051-.056-.113-.111-.164-.18-.061 0-.148-.027-.199-.027v-.504h2.76v.504c-.086 0-.174.056-.236.056-.062.066-.113.096-.139.151-.025.053-.088.136-.111.188 0 .178-.027.357-.027.535v6.855c0 .162.027.341.027.518.023.067.086.163.111.219a.549.549 0 0 0 .201.15c.062.026.111.026.174.068v.504zM161.775 71.249c-.111.026-.199.095-.311.122-.027.055-.076.082-.102.138l-.023.053c-.051.233-.125.439-.178.671l-2.16 8.262h-1.547l-1.334-5.121-1.25 5.121h-1.6l-2.322-8.549c-.049-.15-.1-.315-.174-.452a2.166 2.166 0 0 1-.088-.149c-.074-.042-.174-.068-.25-.095v-.505h2.736v.505a2.335 2.335 0 0 0-.326.095 1.33 1.33 0 0 0-.137.191c0 .136.023.286.023.41l1.523 5.914 1.197-5-.359-1.351a.62.62 0 0 1-.1-.083c-.125-.055-.225-.124-.326-.177v-.505h2.785v.505c-.113 0-.25.053-.363.053a1.476 1.476 0 0 0-.172.233c0 .136.047.286.061.41l1.436 5.914 1.486-5.627c.023-.287.062-.506-.023-.779-.125-.054-.264-.151-.375-.204v-.505h2.271v.505zM165.982 75.714l-1.199-3.168-1.111 3.168h2.31zm3.807 4.78h-2.984v-.547a7.41 7.41 0 0 1 .311-.082c.027-.026.078-.068.104-.095.061-.083.086-.205.125-.273-.039-.122-.09-.233-.125-.355l-.826-2.199h-3.121l-.787 2.199c0 .122-.051.233-.051.355 0 .068.025.15.076.244.139.098.311.151.438.206v.547h-2.523v-.547c.125-.026.213-.055.338-.082.023-.026.076-.095.1-.124.1-.189.225-.396.324-.6l2.984-8.397h1.861l3.184 8.697c.062.07.125.178.174.273.051.026.102.124.162.15.09.027.164.056.238.082v.548zM173.621 80.494h-2.885v-.505c.074 0 .148-.042.25-.042.051-.026.098-.082.137-.108.025-.068.086-.124.125-.191.025-.178.074-.384.074-.613V72.18c-.023-.178-.023-.357-.049-.535a1.308 1.308 0 0 1-.162-.273c-.027-.026-.102-.066-.125-.095-.102 0-.176-.027-.25-.027v-.504h2.885v.504c-.074 0-.227.056-.287.056-.051.066-.113.096-.139.151-.049.08-.086.188-.137.271v7.619c.025.096.051.206.051.302.062.067.086.123.137.191.111.054.262.082.375.15v.504zM182.072 72.778h-.574c-.025-.15-.074-.3-.1-.41-.023-.067-.086-.123-.113-.178a.472.472 0 0 1-.148-.136 3.55 3.55 0 0 0-.512-.056h-1.537v7.033c0 .231.025.438.064.615a.732.732 0 0 1 .137.22c.148.025.262.081.438.122v.505h-2.986v-.505c.113-.041.188-.041.301-.07a.366.366 0 0 0 .174-.149 1.21 1.21 0 0 0 .113-.218c0-.178.037-.355.037-.52v-7.033h-1.561c-.188.027-.35.056-.5.124-.088.067-.162.178-.236.271-.039.124-.102.273-.125.384h-.564v-2.036h7.693v2.037zM180.666 40.378l-.51 1.391s-.248.58.08 1.085c.285.439.635 1.043.676 1.267.041.227-1.27 1.005-2.641 1.209-1.369.205-2.535-.758-2.68-1.699-.143-.941.123-1.617.123-1.617s.387-1.162-1.197.096c-1.812 1.44-2.447 3.899-6.395 4.037-4.131.145-4.096-4.281-4.279-5.61-.186-1.331-.896-13.929-1.104-16.86-.207-2.93-.807-6.768-1.807-9.646 0 0-.258-.81-.586-.241-.326.569-.637 2.207-.293 4.465.346 2.258 1.131 8.664 1.441 13.422.277 4.276.369 8.427.328 10.067-.004.186-.121.578-.645 1.031-1.451 1.267-5.352 4.312-10.855 5.865-7.06 1.99-11.973-.829-9.569-7.655 0 0 .147-.371.13-.61-.017-.243-.356.154-.748.964-.389.811-2.02 5.568.438 8.671 2.457 3.104 8.246 2.317 12.568.31 4.6-2.135 7.084-4.292 7.809-5.118 0 0 .389-.455.752-1.245.363-.797.566-1.264.672-1.316.104-.051.283.052.311.62.025.57.205 5.251 3.67 5.871 3.467.621 5.121-1.915 6.904-3.672 1.656-1.629 1.449-.258 1.449.181 0 .44 0 2.199 2.301 2.637 2.303.44 3.686-1.501 4.01-2.353.326-.863.871-3.055 0-5.508.001-.002-.14-.544-.353-.039"/><path d="M170.551 33.691l2.797 2.44-2.241 2.513-2.832-2.457zM174.562 49.756l2.799 2.44-2.238 2.513-2.832-2.457zM165.951 26.857c3.449-1.879 15.061-6.491 15.359-6.596.326-.114.426-.377.426-.377l.334-.762c-10.895 4.24-15.326 6.439-15.326 6.439s-.498.249-.604.379c.001.001-.24.389-.189.917M176.549 29.934a.495.495 0 0 0-.084-.093.177.177 0 0 0-.104-.04c-.051 0-.098.031-.133.071-.061.073-.066.178-.168.215-.074.026-.146-.006-.211-.043-.096-.053-.188-.119-.277-.181a26.04 26.04 0 0 1-.383-.266l-.367-.256-.199-.139c0-.001-.002-.003-.006-.005 0 0-.262-.111-.172-.663.088-.549.33-1.272 1.178-.886.191.086.352.23.492.383.178.196.328.414.469.637.162.258.305.527.439.799.141.288.273.577.4.87a41.815 41.815 0 0 1 .375.892s.295-.082.318-.48c.037-.419.029-1.575.469-3.077.369-1.272 1.566-1.4 2.215-.583 0 0 .07.094.039.212-.033.116-.238.604-.238.604s-.059.156-.225.073-.393-.369-.82-.375c-.426-.008-.844.252-1.033 2.151-.043.414-.072.83-.121 1.244-.047.386-.137.955-.498 1.198-.111.076-.203-.017-.256-.124-.367-.719-.623-1.473-1.099-2.138M165.643 15.152l.805-1.756s.262-.691 1.279-.929c1.02-.238 2.967-.136 3.42-.136s1.145.147.939.94c-.203.792-.85 1.847-2.275 3.058-1.428 1.212-2.436 1.495-3.377 1.801 0 0-.203-.102.092-.374.293-.272.545-.261 1.664-1.008 1.123-.747 1.801-1.246 1.881-1.698.059-.331-1.129-.323-1.289-.326-.766-.019-1.529.001-2.232.334-.124.059-1.175.697-.907.094M116.551 22.121l.824-1.597s.271-.632 1.227-.81c.96-.178 2.765 0 3.187.02.42.019 1.057.184.833.913-.222.729-.868 1.68-2.247 2.745-1.378 1.066-2.326 1.287-3.214 1.53 0 0-.184-.102.102-.343.284-.241.516-.218 1.59-.865 1.072-.647 1.726-1.08 1.82-1.499.068-.305-1.037-.348-1.185-.358-.711-.051-1.422-.062-2.088.216-.119.049-1.124.596-.849.048M87.28 30.913l.822-1.597s.271-.632 1.229-.81c.958-.178 2.765 0 3.185.02.42.019 1.057.186.834.915-.224.728-.869 1.679-2.247 2.743-1.378 1.066-2.328 1.288-3.214 1.53 0 0-.186-.102.1-.343.286-.239.516-.219 1.592-.865 1.073-.647 1.727-1.081 1.819-1.499.068-.305-1.037-.348-1.185-.359-.711-.051-1.42-.062-2.086.216-.12.05-1.126.597-.849.049M150.711 30.504c-.285.315-.684.779-.969 1.239-.494.801.33 1.099.836 1.153.502.056 2.027.088 2.896.011.867-.076 1.449.208 1.404 1.262-.045 1.053-.637 2.019-1.459 3.072-.824 1.054-1.473 1.547-2.217 1.668-.746.122-3.029.088-3.029.088s-.736.034.176-.362c.91-.396 2.863-.625 4.455-2.196 0 0 .373-.306.066-.504s-1.82-.11-2.635-.11c-.812 0-2.172-.142-2.018-1.942.152-1.8 1.084-4.269 3.994-6.508 0 0 .361-.318.812-.273.449.045.283.57.098 1.02-.188.45-.928 1.853-.928 1.853s-.043.079-.113.039c-.068-.041-.641-.312-1.369.49M150.863 19.724s.246-.645.275-1.544c.023-.706-.156-.774-.752-1.134-.758-.458-2.027-1.227-2.545-1.834-.412-.482.1-.914.445-.986.342-.074 1.002-.074 1.523.281s.527 1.357-.404 2.61c-.934 1.255-1.754 2.629-4.672 5.5-2.104 2.069-4.935 5.05-7.28 6.843 0 0 .104.241.517-.017.414-.258 3.092-2.362 4.604-3.706 1.56-1.388 4.199-3.605 6.654-7.273 2.07-3.095 1.947-4.795 1.639-5.624-.311-.825-1.518-.638-2.002-.413-.48.224-1.395.983-2.066 2.173-.672 1.188-.328 2.068.344 2.585.672.516 3.482 2.593 3.482 2.593s.146.106.238-.054M157.918 54.04l.057-.204c.094-.308.285-.909.553-1.442.377-.757.955-.889 1.432-.889.479 0 1.152.198.855 1.465-.295 1.268-.938 2.288-1.266 2.732-.33.445-2.289 3.046-3.111 3.605 0 0-.107-.361.342-.873.449-.513 2.166-2.499 2.666-3.321.5-.818.359-1.369-.051-1.613-.363-.216-.822.005-1.1.433a1.822 1.822 0 0 0-.098.174.34.34 0 0 1-.141.159.111.111 0 0 1-.094.011.107.107 0 0 1-.057-.085c-.009-.052.013-.101.013-.152M136.869 19.759l-.797-2.012s-1.199-2.865-1.377-3.321c-.178-.454-.329-.062-.329-.062s-.858 2.133-.896 2.348a.593.593 0 0 0 .076.391l.357.825c-.07 1.585.311 8.412.655 11.101.344 2.691.966 9.138 1.293 12.189.328 3.051.331 6.552.127 7.314-.204.761-.27 1.18-.084 1.076.186-.101.318-.408.318-.408 1.311-3.276 1.275-6.172.793-11.413-.482-5.242-1.67-16.062-1.693-17.306-.023-1.243.574-.691.574-.691l.492.597s.443.592.593.479c.154-.112.051-.668-.102-1.107"/><path d="M113.595 16.789c-8.585 3.448-14.32 6.659-14.58 6.936-.258.277-.017.499-.017.499 1.187 1.329 4.984 4.015 8.956 7.326a96.702 96.702 0 0 1 2.068 1.774c1.49 1.321 2.876 2.655 4.097 4.227 2.365 2.987 4.873 7.636 9.239 7.683 1.635.02 2.635-.398 3.256-.818.287-.194.565-.422.794-.68.207-.235.421-.465.405-.784l-.006-.134c-.05-.935-.132-1.966-.132-1.966-.327-3.051-.95-9.498-1.294-12.188-.344-2.69-.725-9.517-.655-11.102l-.358-.824s-.114-.176-.075-.393c.037-.213.896-2.348.896-2.348s.152-.391.327.063c.178.455 1.377 3.321 1.377 3.321l.799 2.012c.155.437.257.995.105 1.105-.151.113-.594-.478-.594-.478l-.493-.598s-.6-.552-.574.691c.021 1.246 1.21 12.065 1.692 17.307 0 0 .2 2.913-.062 4.953-.261 2.04-1.077 4.429-3.611 5.508-2.536 1.078-6.092-.351-8.452-3.323-2.36-2.972-2.973-4.896-5.332-6.294 0 0 1.719 2.738.699 6.004-1.02 3.263-3.556 4.08-6.587 4.457-3.03.38-4.254-1.544-3.992-3.467.263-1.924 1.544-4.197 3.613-4.284s3.613 2.623 4.05 3.904c.438 1.284.554 3.585-.291 5.247-.845 1.661-1.808 3.176-6.791 6.673-4.984 3.497-7.11 2.942-8.509 2.652-1.4-.291-3.06-1.748-3.178-4.663-.116-2.915.846-4.837 1.167-5.391.32-.555.32.087.086.991-.233.902-1.079 4.283 1.456 5.683 2.538 1.398 5.042.698 8.25-1.167 3.205-1.864 6.322-4.72 6.731-5.012.408-.291.509-1.048-.266-2.419-.776-1.369-1.5-3.205-3.129-3.646s-1.81.931-1.81.931-.053.775 1.551.958c1.604.181 4.68.024 6.723-1.733 0 0 .311-.182.286-.673-.026-.492-.043-1.663-2.354-4.593-2.31-2.932-5.999-6.93-7.206-8-1.207-1.068-4-4.136-4-4.136s-.612-.647-.303-2.329c.311-1.68 1.139-2.74 2.406-3.542 1.836-1.474 11.223-5.457 11.223-5.457s6.832-2.842 10.464-3.913c2.896-.855 7.585-2.164 8.827-1.62 1.24.542.61 1.77.61 1.77-.378 1.034-.651 1.709-1.154 2.677-.149.289-1.319 2.276-1.319 2.276l-.955 1.474s-.028.311-.207.156c-.181-.156.13-.674.13-.674 2.37-3.515 2.916-5.102.878-5.148.003.003-3.428-.365-14.875 4.539"/><path d="M119.523 33.359a.456.456 0 0 0-.087-.094.168.168 0 0 0-.102-.039.173.173 0 0 0-.131.069c-.062.073-.066.179-.168.215-.074.026-.146-.006-.211-.043-.096-.051-.187-.117-.277-.179l-.383-.266-.366-.257-.199-.139-.006-.005s-.263-.113-.173-.663c.088-.55.331-1.273 1.179-.887.191.086.351.231.491.383.178.196.329.415.468.639.162.256.305.527.44.799a30.072 30.072 0 0 1 .775 1.76s.293-.082.318-.48c.037-.419.029-1.575.468-3.077.369-1.272 1.565-1.4 2.215-.581 0 0 .071.093.038.21-.032.118-.237.604-.237.604s-.06.156-.225.073c-.167-.083-.393-.37-.82-.375-.425-.008-.844.252-1.033 2.151-.043.415-.072.832-.122 1.244-.046.388-.136.955-.498 1.198-.111.076-.204-.017-.258-.124-.363-.719-.62-1.473-1.096-2.136M112.49 25.026s.205-.386.292-.949c.069-.44-.039-.496-.387-.768-.443-.346-1.187-.924-1.468-1.346-.223-.334.134-.564.357-.586.221-.02.638.031.941.294.301.263.228.89-.456 1.607-.683.716-1.338 1.479-3.372 3.096-1.625 1.291-6.417 4.428-8.035 5.375 0 0 .048.159.328.028.281-.131 5.049-2.882 6.106-3.612 1.089-.751 2.927-1.941 4.758-4.054 1.544-1.785 1.598-2.862 1.465-3.404s-.91-.516-1.231-.413c-.323.105-.957.511-1.473 1.205-.516.696-.366 1.275.02 1.649.385.377 2.001 1.895 2.001 1.895s.084.076.154-.017M115.482 53.805a.432.432 0 0 0-.076-.101.168.168 0 0 0-.099-.048.177.177 0 0 0-.136.056c-.068.068-.085.173-.188.199-.076.021-.144-.019-.206-.06-.093-.063-.176-.137-.26-.208a21.02 21.02 0 0 1-.358-.3l-.342-.287a22.073 22.073 0 0 0-.191-.16s-.249-.137-.111-.678c.139-.539.445-1.237 1.256-.775.181.104.328.263.455.427.159.21.289.441.408.677.136.271.255.553.363.836.116.298.221.6.32.904a26.695 26.695 0 0 1 .293.921s.3-.054.36-.448c.076-.414.175-1.565.747-3.021.487-1.234 1.689-1.253 2.261-.38 0 0 .062.102.019.216-.045.111-.293.58-.293.58s-.071.149-.229.051c-.158-.098-.357-.403-.782-.449-.423-.044-.866.174-1.226 2.049-.081.409-.15.82-.235 1.228-.081.381-.223.938-.603 1.146-.12.064-.202-.036-.247-.146-.299-.751-.485-1.526-.9-2.229M91.71 47.028c-1.269-.623-1.059-2.332-.974-2.949.076-.564-.465-.277-.465-.277s-.856.358-1.564.686c-.706.328-3.664 1.768-7.975 3.111-4.309 1.347-10.598 2.513-13.598-.038-3-2.552-1.73-5.417-1.576-5.717.131-.255.333-.465.208-.536-.122-.07-.391.206-.391.206-1.227 1.1-1.642 3.259-1.448 4.628.195 1.371 1.266 5.903 7.37 5.885 5.716-.02 9.603-1.932 12.258-3.054 2.653-1.12 4.769-2.133 5.546-2.287.776-.156.649.298.649.298-.121 2.207 1.055 3.074 1.742 3.275.383.109 3.329.422 4.449-1.872 1.12-2.292.666-4.755.498-5.18-.167-.426-.834-1.791-1.077-1.063-.244.729-.729 2.141-.729 2.141s-.128.3.168.522c.3.226.912.985.978 1.516s-2.483 1.627-4.069.705M78.99 35.625l2.799 2.439-2.24 2.514-2.832-2.458zM74.162 35.896l2.799 2.44-2.239 2.514-2.833-2.458zM85.146 52.692l2.796 2.44-2.239 2.514-2.832-2.458zM80.317 52.964l2.798 2.44-2.24 2.513-2.833-2.459zM69.085 19.717a.505.505 0 0 0-.088-.091.158.158 0 0 0-.104-.037.19.19 0 0 0-.13.071c-.06.074-.062.181-.164.219-.074.028-.146-.001-.212-.037-.099-.052-.19-.116-.281-.176l-.388-.257-.374-.249-.201-.135a.031.031 0 0 0-.006-.004s-.264-.107-.188-.658c.077-.554.304-1.281 1.162-.912.191.082.355.223.498.373.182.19.338.406.484.627.165.255.313.519.456.79.148.281.286.57.419.861.133.289.249.541.375.836a.376.376 0 0 0 .02.046s.292-.088.306-.487c.029-.42-.001-1.575.403-3.086.343-1.28 1.536-1.434 2.202-.629 0 0 .073.091.043.21-.031.118-.226.609-.226.609s-.056.156-.223.077c-.168-.08-.4-.36-.827-.357-.427.001-.839.269-.989 2.173-.033.415-.054.83-.094 1.246-.037.388-.116.957-.47 1.207-.113.079-.206-.012-.261-.117-.38-.711-.652-1.46-1.142-2.113M67.88 28.279c-.156.436-.066 1.016.19.725.257-.289.679-.558.679-.558 1.644-1.003 8.274-3.264 14.111-5.528 7.053-2.735 14.018-5.182 14.306-5.27.564-.173.748-.61.748-.61l.62-1.273c-6.418 2.204-11.814 4.253-16.062 5.818-6.56 2.414-10.81 3.983-12.295 4.556-.371.142-.861.346-1.235.666a3.868 3.868 0 0 0-1.062 1.474M61.341 21.485l-.834-1.998s-1.248-2.845-1.433-3.296c-.186-.452-.33-.058-.33-.058s-.822 2.15-.856 2.365.082.39.082.39l.374.817c-.042 1.588.458 8.407.85 11.09.391 2.681 1.125 9.118 1.505 12.163.382 3.044.447 6.546.257 7.311-.192.766-.249 1.184-.065 1.077.184-.104.311-.414.311-.414 1.253-3.298 1.168-6.192.593-11.424-.575-5.232-1.953-16.029-1.998-17.273s.564-.702.564-.702l.502.589s.453.583.603.468c.149-.115.037-.669-.125-1.105M50.658 43.347c-.776.379-1.037.542-2.331 1.147-2.242 1.046-3.774.351-4.022.168-.255-.188-.582-.841-.787-1.394-.208-.55-.345-.206-.345-.206s-.742 2.104-.827 2.414c-.088.309.068.516.068.516 1.052 1.517 1.276 3.069 1.449 3.947.17.881-.122 1.071-.122 1.071-1.551 1.43-5.103 4.188-9.085 5.344-3.981 1.153-5.292-.708-5.292-.708-1.723-1.654-.585-5.31-.104-6.034.482-.724-.069-1.103-.069-1.103-1.275 2.275-2.346 6.655-.757 9.31 1.585 2.654 4.896 2.241 7.963.586 3.069-1.655 5.448-3.518 7.069-5.242C45.086 51.44 45 48.045 45 48.045c2.862-.465 4.407-1.873 6.31-2.378 3.435-.915 5.01.661 5.199.893.188.232.072.419.072.419s-.564.637-1.953-.159c-1.388-.796-2.054-3.299-2.054-3.299-.874-5.299-1.388-13.11-1.388-13.11-.207-4.479-.413-8.841-.383-9.6.046-1.244.614-.659.614-.659l.459.623s.408.614.565.512c.158-.104.085-.663-.043-1.11l-.683-2.054s-1.037-2.932-1.187-3.396c-.153-.463-.325-.08-.325-.08s-.978 2.083-1.029 2.295a.603.603 0 0 0 .054.396l.312.842c-.159 1.58-.026 8.359.165 11.063.155 2.794.777 11.404 1.293 14.353.348 1.982.777 3.759 1.482 4.984.708 1.222 2.19 1.947 3.191 1.152.999-.793 2.378-3.361 2.085-5.067-.292-1.708-2.104-2.947-5.154-2.12.002 0-1.011.346-1.944.802"/><path d="M39.56 30.741l.824-1.598s.271-.631 1.227-.809c.959-.179 2.765 0 3.187.019.42.02 1.057.186.833.915-.223.728-.869 1.68-2.247 2.745-1.378 1.066-2.326 1.286-3.213 1.53 0 0-.186-.104.101-.343.284-.241.516-.221 1.59-.866 1.074-.647 1.726-1.082 1.82-1.499.068-.306-1.037-.348-1.186-.358-.71-.051-1.421-.062-2.087.216-.119.049-1.124.597-.849.048M31.768 26.768c3.531-1.715 14.58-5.469 14.884-5.561a.695.695 0 0 0 .44-.357l.37-.745c-11.079 3.724-14.841 5.406-14.841 5.406s-.51.224-.621.351c0 0-.26.375-.232.906M29.481 38.341l2.798 2.44-2.239 2.513-2.832-2.457zM8.179 54.032l2.797 2.44-2.238 2.513-2.833-2.458zM3.351 54.304l2.798 2.44-2.239 2.513L1.078 56.8zM8.914 18.639l.822-1.597s.271-.632 1.229-.808c.96-.179 2.765 0 3.186.019.422.019 1.057.186.834.915-.223.728-.869 1.678-2.247 2.743-1.378 1.068-2.326 1.287-3.214 1.531 0 0-.186-.104.102-.345.285-.239.517-.219 1.59-.865s1.727-1.08 1.819-1.498c.068-.306-1.035-.349-1.185-.36-.709-.051-1.42-.062-2.086.216-.12.05-1.125.599-.85.049M58.224 58.954c3.551-1.677 10.051-3.523 10.357-3.611a.71.71 0 0 0 .447-.353l.375-.74c-8.366 2.525-10.314 3.458-10.314 3.458s-.511.219-.624.344c0 0-.262.372-.241.902"/><path d="M21.412 25.738c1.179 1.193 4.469 5.002 5.978 6.299.663.568 2.029 1.87 3.542 3.249a456.678 456.678 0 0 0 5.25 4.715c.751.647 2.146 2.096 1.966 3.052s-2.949 2.004-5.843 2.896c-1.992.568-2.625.825-4.668 1.989-2.042 1.163-3.725 3.051-5.197 4.811-1.473 1.757-3.66 4.165-5.65 3.416-1.99-.752-.864-4.44-.259-5.664.907-1.833 1.165-2.785.837-2.716s-1.096 1.629-1.096 1.629c-.954 1.786-1.536 4.518-1.151 6.441.308 1.533 1.542 2.552 3.144 2.438 1.242-.092 2.201-.864 3.119-1.819 1.318-1.371 2.646-3.3 4.029-4.582.754-.702 1.726-1.258 2.746-1.779a18.192 18.192 0 0 1 3.476-1.343c2.224-.595 4.06-1.423 5.354-2.406 1.292-.982 2.585-3.156 2.042-5.534-.544-2.378-3.388-4.759-6.723-7.423-3.336-2.663-6.543-5.74-7.008-6.127-.465-.387-.918-.981-.492-1.046.427-.065 1.085.318 1.268.016.181-.306-.198-.527-.198-.527s-2.743-1.579-3.715-2.519c-1.019-.983 1.102-1.862 1.102-1.862s5.052-2.344 9.353-3.888c4.584-1.641 9.775-3.335 13.163-4.084 3.267-.723 7.503-1.296 8.362-.802.717.415.349 1.216.349 1.216-1.048 2.439-3.066 4.587-3.066 4.587-.331.425.041.535.041.535s.593-.745 1.498-1.862c1.224-1.514 2.049-3.284 2.638-4.279.654-1.105.756-2.083.33-2.483-.442-.416-1.362-.772-4.785-.396-1.465.161-5.176.858-8.621 1.915-1.238.379-2.473.779-3.713 1.166-7.792 2.438-12.914 4.718-14.232 5.338-1.32.623-2.063.978-2.677 1.837 0 0-.856 1.286-1.017 3.031 0 0-.04.567-.066 1.201 0 0-.011.173-.001.365.006.426.203.585.268.655.133.144.294.295.323.344"/><path d="M15.975 37.27c.141.164.339.326.339.326 1.363 1.26 3.465 1.19 5.963 1.243 2.5.051 2.226 2.015 2.243 2.689.019.672-.195 1.472-.195 1.472-.402 1.128-1.219 1.855-1.219 1.855-2.499 2.309-5.31 3.826-6.74 4.757-1.431.932-6.362 3.396-9.931 2.794-3.568-.604-5.964-2.812-6.274-6.982-.311-4.172.854-7.038 1.548-8.044.697-1.007 1.037-.963 1.051-.844.017.119-.279.547-.279.547-1.969 3.729-1.687 6.658-.547 9.262 1.138 2.603 4.482 3.12 6.716 3.093 2.233-.031 3.859-.609 7.322-2.279 3.46-1.671 7.366-4.23 7.499-4.453s-.046-.337-.046-.337c-1.371-.875-3.919-.391-5.588-.773-1.745-.398-3.313-1.406-2.929-3.581.383-2.174 1.066-3.697 2.812-5.693 1.746-1.997 3.489-2.959 4.378-3.006.887-.043 1.346.609 1.317 1.732-.031 1.125-.711 2.204-.711 2.204-.196-.81-1.252-1.561-2.975-.44-1.725 1.122-2.266 1.986-3.275 3.128a7.235 7.235 0 0 0-.443.669c-.002 0-.215.425-.036.661"/><path d="M7.476 40.533a.464.464 0 0 0-.086-.091.16.16 0 0 0-.105-.037c-.049.001-.096.033-.128.071-.061.074-.062.181-.164.218-.074.029-.145-.001-.211-.036-.099-.052-.19-.116-.281-.176a26.1 26.1 0 0 1-.388-.258 40.272 40.272 0 0 1-.374-.248l-.201-.134a.02.02 0 0 0-.006-.004s-.264-.107-.188-.659c.077-.553.304-1.281 1.162-.912.192.082.355.223.498.373.183.19.338.406.482.627.167.255.315.519.456.79.15.281.288.569.42.861.133.289.249.541.374.836l.022.046s.292-.088.304-.487c.031-.422-.001-1.575.405-3.086.343-1.28 1.536-1.435 2.202-.629 0 0 .073.091.043.21-.031.116-.226.609-.226.609s-.056.158-.223.077c-.168-.08-.4-.36-.827-.357-.427.001-.839.269-.989 2.173-.032.414-.056.83-.094 1.246-.037.386-.116.957-.47 1.207-.113.079-.206-.012-.261-.118-.383-.71-.655-1.46-1.146-2.112M12.9 26.392c.005.048.005.096.011.141.013.097.034.196.059.292.059.212.144.427.275.601.328.431.845 1 .638 2.052-.206 1.051-.654 1.206-.949 1.206-.292 0-.62-.241-.878-.603-.26-.363-.301-.397-.606-.013-.25.314-.48.907-1.36.926-.879.017-1.069-.674-1.154-1.414s.004-1.111-.275-1.5c-.224-.306-.286-.365-.239-.576.073-.326.134-.801.358-.629.226.173.366.445.38 1 .011.484-.034 2.104 1.034 2.034 1.069-.069 1.26-.603 1.207-.947s-.196-.825-.414-1.328c-.166-.383-.183-.596-.148-.8.031-.203.148-.595.148-.595s.136-.357.293.188c.136.475.15 1.273.484 1.844.226.388.55 1.001.964 1.139s.689.069.776-.138c.085-.208-.034-.483-.518-1.018-.482-.533-.482-.793-.448-1.173.031-.331.228-.992.326-.817a.269.269 0 0 1 .036.128M49.278 51.303s.164-.517.652-.406c.488.108.646.507.646.507s.081.157-.211.144c-.245-.011-.829-.054-1.303.395-.476.447-.72 1.33-.394 2.104.326.774 1.005 2.267.911 4.399 0 0 .258-.189.284-.719s-.094-1.792-.488-2.961c-.394-1.168-.68-1.494-.408-2.104s1.223-.49 1.793-.49.61-.298.61-.69c0-.395-.271-.955-.918-1.201-.705-.267-1.069.222-1.193.429-.136.227-.103.635.019.593M3.83 32.904c0-.072.017-.474.181-.508.164-.032.21.093.21.584 0 .841-.117 2.161-.491 3.233-.375 1.074-.997 1.371-1.771 1.086-.915-.335-1.498-2.051-1.355-4.276.142-2.224.85-3.857 1.454-5.217.603-1.363 1.273-2.933 1.252-3.423-.026-.583.029-.503.184-.901.154-.396.405-1.125.612-.836 0 0 .236.278-.138 1.433-.34 1.052-1.318 3.446-1.85 4.855-.532 1.411-1.034 3.154-.325 4.603.635 1.293 1.686.957 1.856.373 0-.001.151-.366.181-1.006M56.269 28.302c.006.161.012.308-.065.495-.145.349-.635 1.341-.984 2.122-.349.782-.552 2.164.236 2.513.79.351.927-.642.951-.813.024-.17.171-.179.188.049.016.227.008 1.164-.74 1.521-.75.357-1.365-.187-1.382-1.53-.019-1.346.853-2.646 1.198-3.269.298-.538.391-.739.382-1.014 0 0-.019-.238.073-.26.089-.019.139.015.143.186"/></g></svg>